RobotoDelta-XOPQmin-YOPQmin-XTRAmin.ufo
<glyph name="quotedbl" format="1">
  <advance width="639"/>
  <unicode hex="0022"/>
  <outline>
    <contour>
      <point x="110" y="963" type="line"/>
      <point x="276" y="963" type="line"/>
      <point x="287" y="1351" type="line"/>
      <point x="287" y="1456" type="line"/>
      <point x="100" y="1456" type="line"/>
      <point x="100" y="1342" type="line"/>
    </contour>
    <contour>
      <point x="362" y="963" type="line"/>
      <point x="527" y="963" type="line"/>
      <point x="539" y="1351" type="line"/>
      <point x="539" y="1456" type="line"/>
      <point x="352" y="1456" type="line"/>
      <point x="352" y="1349" type="line"/>
    </contour>
  </outline>
</glyph>
<glyph name="numbersign" format="1">
  <advance width="1148"/>
  <unicode hex="0023"/>
  <outline>
    <contour>
      <point x="172" y="-30" type="line"/>
      <point x="323" y="-30" type="line"/>
      <point x="636" y="1476" type="line"/>
      <point x="484" y="1476" type="line"/>
    </contour>
    <contour>
      <point x="514" y="-30" type="line"/>
      <point x="666" y="-30" type="line"/>
      <point x="978" y="1476" type="line"/>
      <point x="826" y="1476" type="line"/>
    </contour>
    <contour>
      <point x="115" y="904" type="line"/>
      <point x="1084" y="904" type="line"/>
      <point x="1084" y="1042" type="line"/>
      <point x="115" y="1042" type="line"/>
    </contour>
    <contour>
      <point x="64" y="413" type="line"/>
      <point x="1034" y="413" type="line"/>
      <point x="1034" y="551" type="line"/>
      <point x="64" y="551" type="line"/>
    </contour>
  </outline>
</glyph>
<glyph name="dollar" format="1">
  <advance width="668"/>
  <unicode hex="0024"/>
  <outline>
    <contour>
      <point x="90" y="411" type="line" smooth="yes"/>
      <point x="90" y="191"/>
      <point x="227" y="0"/>
      <point x="341" y="0" type="qcurve" smooth="yes"/>
      <point x="450.0" y="0.0"/>
      <point x="588.0" y="176.6524064171123"/>
      <point x="588" y="364" type="qcurve" smooth="yes"/>
      <point x="588.0" y="517.8010204081633"/>
      <point x="489.5171233887629" y="704.8249736222649"/>
      <point x="355" y="769" type="qcurve" smooth="yes"/>
      <point x="239.38442176317454" y="826.2083495570794"/>
      <point x="164.0" y="991.6060606060606"/>
      <point x="164" y="1106" type="qcurve" smooth="yes"/>
      <point x="164.0" y="1257.258064516129"/>
      <point x="247.0" y="1406.0"/>
      <point x="334" y="1406" type="qcurve" smooth="yes"/>
      <point x="422" y="1406"/>
      <point x="511" y="1220"/>
      <point x="511" y="1051" type="qcurve" smooth="yes"/>
      <point x="511" y="1039" type="line"/>
      <point x="565" y="1039" type="line"/>
      <point x="565" y="1051" type="line" smooth="yes"/>
      <point x="565" y="1247"/>
      <point x="440" y="1456"/>
      <point x="334" y="1456" type="qcurve" smooth="yes"/>
      <point x="242.0" y="1456.0"/>
      <point x="109.0" y="1283.4444444444443"/>
      <point x="109" y="1106" type="qcurve" smooth="yes"/>
      <point x="109.0" y="957.2303664921466"/>
      <point x="245.46918300533287" y="772.1796611366566"/>
      <point x="370" y="711" type="qcurve" smooth="yes"/>
      <point x="489.59723875541897" y="651.797857652012"/>
      <point x="534.0" y="485.5"/>
      <point x="534" y="364" type="qcurve" smooth="yes"/>
      <point x="534.0" y="213.50617283950618"/>
      <point x="439.0" y="50.0"/>
      <point x="341" y="50" type="qcurve" smooth="yes"/>
      <point x="248" y="50"/>
      <point x="145" y="220"/>
      <point x="145" y="411" type="qcurve" smooth="yes"/>
      <point x="145" y="423" type="line"/>
      <point x="90" y="423" type="line"/>
    </contour>
    <contour>
      <point x="313" y="-150" type="line"/>
      <point x="363" y="-150" type="line"/>
      <point x="363" y="90" type="line"/>
      <point x="363" y="100" type="line"/>
      <point x="363" y="728" type="line"/>
      <point x="313" y="728" type="line"/>
    </contour>
    <contour>
      <point x="313" y="728" type="line"/>
      <point x="363" y="728" type="line"/>
      <point x="363" y="1606" type="line"/>
      <point x="313" y="1606" type="line"/>
      <point x="313" y="1366" type="line"/>
      <point x="313" y="1356" type="line"/>
    </contour>
  </outline>
</glyph>
<glyph name="percent" format="1">
  <advance width="923"/>
  <unicode hex="0025"/>
  <outline>
    <contour>
      <point x="70" y="936" type="line" smooth="yes"/>
      <point x="70" y="803"/>
      <point x="137" y="660"/>
      <point x="197" y="660" type="qcurve" smooth="yes"/>
      <point x="258" y="660"/>
      <point x="325" y="803"/>
      <point x="325" y="936" type="qcurve" smooth="yes"/>
      <point x="325" y="1200" type="line" smooth="yes"/>
      <point x="325" y="1333"/>
      <point x="258" y="1476"/>
      <point x="197" y="1476" type="qcurve" smooth="yes"/>
      <point x="137" y="1476"/>
      <point x="70" y="1333"/>
      <point x="70" y="1200" type="qcurve" smooth="yes"/>
    </contour>
    <contour>
      <point x="120" y="926" type="qcurve" smooth="yes"/>
      <point x="120" y="1210" type="line" smooth="yes"/>
      <point x="120" y="1311"/>
      <point x="160" y="1428"/>
      <point x="197" y="1428" type="qcurve" smooth="yes"/>
      <point x="235" y="1428"/>
      <point x="275" y="1311"/>
      <point x="275" y="1210" type="qcurve" smooth="yes"/>
      <point x="275" y="926" type="line" smooth="yes"/>
      <point x="275" y="825"/>
      <point x="235" y="708"/>
      <point x="197" y="708" type="qcurve" smooth="yes"/>
      <point x="160" y="708"/>
      <point x="120" y="825"/>
    </contour>
    <contour>
      <point x="87" y="28" type="line"/>
      <point x="133" y="0" type="line"/>
      <point x="842" y="1442" type="line"/>
      <point x="790" y="1456" type="line"/>
    </contour>
    <contour>
      <point x="598" y="256" type="line" smooth="yes"/>
      <point x="598" y="123"/>
      <point x="665" y="-20"/>
      <point x="725" y="-20" type="qcurve" smooth="yes"/>
      <point x="786" y="-20"/>
      <point x="853" y="123"/>
      <point x="853" y="256" type="qcurve" smooth="yes"/>
      <point x="853" y="520" type="line" smooth="yes"/>
      <point x="853" y="653"/>
      <point x="786" y="796"/>
      <point x="725" y="796" type="qcurve" smooth="yes"/>
      <point x="665" y="796"/>
      <point x="598" y="653"/>
      <point x="598" y="520" type="qcurve" smooth="yes"/>
    </contour>
    <contour>
      <point x="648" y="246" type="qcurve" smooth="yes"/>
      <point x="648" y="530" type="line" smooth="yes"/>
      <point x="648" y="631"/>
      <point x="688" y="748"/>
      <point x="725" y="748" type="qcurve" smooth="yes"/>
      <point x="763" y="748"/>
      <point x="803" y="631"/>
      <point x="803" y="530" type="qcurve" smooth="yes"/>
      <point x="803" y="246" type="line" smooth="yes"/>
      <point x="803" y="145"/>
      <point x="763" y="28"/>
      <point x="725" y="28" type="qcurve" smooth="yes"/>
      <point x="688" y="28"/>
      <point x="648" y="145"/>
    </contour>
  </outline>
</glyph>
<glyph name="ampersand" format="1">
  <advance width="986"/>
  <unicode hex="0026"/>
  <outline>
    <contour>
      <point x="80" y="380" type="qcurve" smooth="yes"/>
      <point x="80" y="220"/>
      <point x="268" y="-20"/>
      <point x="433" y="-20" type="qcurve" smooth="yes"/>
      <point x="628" y="-20"/>
      <point x="892" y="380"/>
      <point x="892" y="674" type="qcurve"/>
      <point x="720" y="674" type="line"/>
      <point x="720" y="420"/>
      <point x="550" y="132"/>
      <point x="433" y="132" type="qcurve" smooth="yes"/>
      <point x="356" y="132"/>
      <point x="264" y="270"/>
      <point x="264" y="380" type="qcurve" smooth="yes"/>
      <point x="264" y="488"/>
      <point x="353" y="647"/>
      <point x="441" y="732" type="qcurve" smooth="yes"/>
      <point x="553" y="840" type="line" smooth="yes"/>
      <point x="623" y="907"/>
      <point x="712" y="1060"/>
      <point x="712" y="1180" type="qcurve" smooth="yes"/>
      <point x="712" y="1327"/>
      <point x="572" y="1486"/>
      <point x="451" y="1486" type="qcurve" smooth="yes"/>
      <point x="331" y="1486"/>
      <point x="178" y="1317"/>
      <point x="178" y="1160" type="qcurve" smooth="yes"/>
      <point x="178" y="1060"/>
      <point x="261" y="872"/>
      <point x="338" y="738" type="qcurve" smooth="yes"/>
      <point x="761" y="0" type="line"/>
      <point x="962" y="0" type="line"/>
      <point x="472" y="850" type="line" smooth="yes"/>
      <point x="403" y="970"/>
      <point x="362" y="1092"/>
      <point x="362" y="1160" type="qcurve" smooth="yes"/>
      <point x="362" y="1246"/>
      <point x="405" y="1334"/>
      <point x="451" y="1334" type="qcurve" smooth="yes"/>
      <point x="499" y="1334"/>
      <point x="540" y="1257"/>
      <point x="540" y="1170" type="qcurve" smooth="yes"/>
      <point x="540" y="1107"/>
      <point x="517" y="1023"/>
      <point x="464" y="971" type="qcurve" smooth="yes"/>
      <point x="354" y="862" type="line" smooth="yes"/>
      <point x="250" y="759"/>
      <point x="80" y="541"/>
    </contour>
  </outline>
</glyph>
<glyph name="quotesingle" format="1">
  <advance width="400"/>
  <unicode hex="0027"/>
  <outline>
    <contour>
      <point x="118" y="963" type="line"/>
      <point x="282" y="963" type="line"/>
      <point x="300" y="1351" type="line"/>
      <point x="300" y="1456" type="line"/>
      <point x="100" y="1456" type="line"/>
      <point x="100" y="1342" type="line"/>
    </contour>
  </outline>
</glyph>
<glyph name="parenleft" format="1">
  <advance width="560"/>
  <unicode hex="0028"/>
  <outline>
    <contour>
      <point x="389" y="-436" type="qcurve"/>
      <point x="389" y="-386" type="line"/>
      <point x="280" y="-308"/>
      <point x="179" y="120"/>
      <point x="179" y="508" type="qcurve" smooth="yes"/>
      <point x="179" y="532" type="line" smooth="yes"/>
      <point x="179" y="920"/>
      <point x="280" y="1348"/>
      <point x="389" y="1426" type="qcurve"/>
      <point x="389" y="1476" type="line"/>
      <point x="246" y="1390"/>
      <point x="124" y="920"/>
      <point x="124" y="525" type="qcurve" smooth="yes"/>
      <point x="124" y="515" type="line" smooth="yes"/>
      <point x="124" y="120"/>
      <point x="246" y="-350"/>
    </contour>
  </outline>
</glyph>
<glyph name="parenright" format="1">
  <advance width="588"/>
  <unicode hex="0029"/>
  <outline>
    <contour>
      <point x="124" y="-481" type="line"/>
      <point x="276" y="-356"/>
      <point x="552" y="111"/>
      <point x="552" y="532" type="qcurve" smooth="yes"/>
      <point x="552" y="542" type="line" smooth="yes"/>
      <point x="552" y="961"/>
      <point x="276" y="1411"/>
      <point x="124" y="1536" type="qcurve"/>
      <point x="124" y="1331" type="line"/>
      <point x="208" y="1251"/>
      <point x="356" y="910"/>
      <point x="356" y="544" type="qcurve" smooth="yes"/>
      <point x="356" y="520" type="line" smooth="yes"/>
      <point x="356" y="146"/>
      <point x="208" y="-192"/>
      <point x="124" y="-279" type="qcurve"/>
    </contour>
  </outline>
</glyph>
<glyph name="asterisk" format="1">
  <advance width="846"/>
  <unicode hex="002A"/>
  <outline>
    <contour>
      <point x="58" y="1192" type="line"/>
      <point x="386" y="1088" type="line"/>
      <point x="182" y="811" type="line"/>
      <point x="222" y="781" type="line"/>
      <point x="423" y="1062" type="line"/>
      <point x="624" y="781" type="line"/>
      <point x="664" y="811" type="line"/>
      <point x="460" y="1088" type="line"/>
      <point x="788" y="1192" type="line"/>
      <point x="773" y="1241" type="line"/>
      <point x="446" y="1132" type="line"/>
      <point x="448" y="1476" type="line"/>
      <point x="398" y="1476" type="line"/>
      <point x="400" y="1132" type="line"/>
      <point x="73" y="1241" type="line"/>
    </contour>
  </outline>
</glyph>
<glyph name="comma" format="1">
  <advance width="543"/>
  <unicode hex="002C"/>
  <outline>
    <contour>
      <point x="99" y="-216" type="qcurve"/>
      <point x="195" y="-317" type="line"/>
      <point x="277" y="-216"/>
      <point x="342" y="3"/>
      <point x="342" y="71" type="qcurve" smooth="yes"/>
      <point x="342" y="220" type="line"/>
      <point x="155" y="220" type="line"/>
      <point x="155" y="68" type="line" smooth="yes"/>
      <point x="155" y="-37"/>
      <point x="124" y="-164"/>
    </contour>
  </outline>
</glyph>
<glyph name="hyphen" format="1">
  <advance width="519"/>
  <unicode hex="002D"/>
  <outline>
    <contour>
      <point x="38" y="543" type="line"/>
      <point x="481" y="543" type="line"/>
      <point x="481" y="715" type="line"/>
      <point x="38" y="715" type="line"/>
    </contour>
  </outline>
</glyph>
<glyph name="slash" format="1">
  <advance width="378"/>
  <unicode hex="002F"/>
  <outline>
    <contour>
      <point x="-102" y="-125" type="line"/>
      <point x="70" y="-125" type="line"/>
      <point x="480" y="1456" type="line"/>
      <point x="308" y="1456" type="line"/>
    </contour>
  </outline>
</glyph>
<glyph name="zero" format="1">
  <advance width="950"/>
  <unicode hex="0030"/>
  <outline>
    <contour>
      <point x="264" y="350" type="line" smooth="yes"/>
      <point x="264" y="184"/>
      <point x="372" y="-30"/>
      <point x="475" y="-30" type="qcurve" smooth="yes"/>
      <point x="578" y="-30"/>
      <point x="686" y="184"/>
      <point x="686" y="350" type="qcurve" smooth="yes"/>
      <point x="686" y="1106" type="line" smooth="yes"/>
      <point x="686" y="1276"/>
      <point x="578" y="1486"/>
      <point x="475" y="1486" type="qcurve" smooth="yes"/>
      <point x="372" y="1486"/>
      <point x="264" y="1276"/>
      <point x="264" y="1106" type="qcurve" smooth="yes"/>
    </contour>
    <contour>
      <point x="320" y="340" type="qcurve" smooth="yes"/>
      <point x="320" y="1116" type="line" smooth="yes"/>
      <point x="320" y="1247"/>
      <point x="397" y="1436"/>
      <point x="475" y="1436" type="qcurve" smooth="yes"/>
      <point x="553" y="1436"/>
      <point x="630" y="1247"/>
      <point x="630" y="1116" type="qcurve" smooth="yes"/>
      <point x="630" y="340" type="line" smooth="yes"/>
      <point x="630" y="214"/>
      <point x="553" y="20"/>
      <point x="475" y="20" type="qcurve" smooth="yes"/>
      <point x="397" y="20"/>
      <point x="320" y="214"/>
    </contour>
  </outline>
</glyph>
<glyph name="one" format="1">
  <advance width="950"/>
  <unicode hex="0031"/>
  <outline>
    <contour>
      <point x="505" y="0" type="line"/>
      <point x="559" y="0" type="line"/>
      <point x="559" y="1476" type="line"/>
      <point x="537" y="1476" type="line"/>
      <point x="277" y="1355" type="line"/>
      <point x="277" y="1300" type="line"/>
      <point x="505" y="1388" type="line"/>
    </contour>
  </outline>
</glyph>
<glyph name="two" format="1">
  <advance width="916"/>
  <unicode hex="0032"/>
  <outline>
    <contour>
      <point x="240" y="0" type="line"/>
      <point x="680" y="0" type="line"/>
      <point x="680" y="50" type="line"/>
      <point x="266" y="50" type="line"/>
      <point x="560" y="721" type="line" smooth="yes"/>
      <point x="631" y="892"/>
      <point x="665" y="1048"/>
      <point x="665" y="1140" type="qcurve" smooth="yes"/>
      <point x="665" y="1301"/>
      <point x="561" y="1486"/>
      <point x="466" y="1486" type="qcurve" smooth="yes"/>
      <point x="371" y="1486"/>
      <point x="246" y="1257"/>
      <point x="246" y="1030" type="qcurve" smooth="yes"/>
      <point x="246" y="1020" type="line"/>
      <point x="301" y="1020" type="line"/>
      <point x="301" y="1030" type="line" smooth="yes"/>
      <point x="301" y="1249"/>
      <point x="397" y="1436"/>
      <point x="466" y="1436" type="qcurve" smooth="yes"/>
      <point x="535" y="1436"/>
      <point x="610" y="1280"/>
      <point x="610" y="1130" type="qcurve" smooth="yes"/>
      <point x="610" y="1032"/>
      <point x="550" y="857"/>
      <point x="507" y="738" type="qcurve" smooth="yes"/>
      <point x="240" y="50" type="line"/>
    </contour>
  </outline>
</glyph>
<glyph name="three" format="1">
  <advance width="920"/>
  <unicode hex="0033"/>
  <outline>
    <contour>
      <point x="212" y="380" type="line" smooth="yes"/>
      <point x="212" y="200"/>
      <point x="339" y="-30"/>
      <point x="439" y="-30" type="qcurve" smooth="yes"/>
      <point x="538" y="-30"/>
      <point x="663" y="200"/>
      <point x="663" y="400" type="qcurve" smooth="yes"/>
      <point x="663" y="540"/>
      <point x="560" y="728"/>
      <point x="479" y="758" type="qcurve"/>
      <point x="479" y="762" type="line"/>
      <point x="560" y="814"/>
      <point x="625" y="990"/>
      <point x="625" y="1100" type="qcurve" smooth="yes"/>
      <point x="625" y="1270"/>
      <point x="524" y="1486"/>
      <point x="439" y="1486" type="qcurve" smooth="yes"/>
      <point x="353" y="1486"/>
      <point x="242" y="1270"/>
      <point x="242" y="1100" type="qcurve" smooth="yes"/>
      <point x="242" y="1090" type="line"/>
      <point x="296" y="1090" type="line"/>
      <point x="296" y="1100" type="line" smooth="yes"/>
      <point x="296" y="1260"/>
      <point x="378" y="1436"/>
      <point x="439" y="1436" type="qcurve" smooth="yes"/>
      <point x="497" y="1436"/>
      <point x="571" y="1260"/>
      <point x="571" y="1100" type="qcurve" smooth="yes"/>
      <point x="571" y="960"/>
      <point x="485" y="786"/>
      <point x="403" y="786" type="qcurve" smooth="yes"/>
      <point x="324" y="786" type="line"/>
      <point x="324" y="732" type="line"/>
      <point x="410" y="732" type="line" smooth="yes"/>
      <point x="491" y="732"/>
      <point x="608" y="560"/>
      <point x="608" y="400" type="qcurve" smooth="yes"/>
      <point x="608" y="210"/>
      <point x="516" y="20"/>
      <point x="439" y="20" type="qcurve" smooth="yes"/>
      <point x="361.0" y="20.0"/>
      <point x="266" y="210"/>
      <point x="266" y="380" type="qcurve" smooth="yes"/>
      <point x="266" y="390" type="line"/>
      <point x="212" y="390" type="line"/>
    </contour>
  </outline>
</glyph>
<glyph name="four" format="1">
  <advance width="877"/>
  <unicode hex="0034"/>
  <outline>
    <contour>
      <point x="506" y="0" type="line"/>
      <point x="690" y="0" type="line"/>
      <point x="690" y="1456" type="line"/>
      <point x="518" y="1456" type="line"/>
      <point x="53" y="466" type="line"/>
      <point x="53" y="348" type="line"/>
      <point x="830" y="348" type="line"/>
      <point x="830" y="500" type="line"/>
      <point x="602" y="500" type="line"/>
      <point x="583" y="500" type="line"/>
      <point x="249" y="500" type="line"/>
      <point x="499" y="1065" type="line"/>
      <point x="506" y="1066" type="line"/>
      <point x="506" y="418" type="line"/>
      <point x="506" y="401" type="line"/>
    </contour>
  </outline>
</glyph>
<glyph name="five" format="1">
  <advance width="950"/>
  <unicode hex="0035"/>
  <outline>
    <contour>
      <point x="245" y="365" type="line" smooth="yes"/>
      <point x="245" y="195"/>
      <point x="368" y="-30"/>
      <point x="468" y="-30" type="qcurve" smooth="yes"/>
      <point x="567" y="-30"/>
      <point x="697" y="235"/>
      <point x="697" y="465" type="qcurve" smooth="yes"/>
      <point x="697" y="672"/>
      <point x="565" y="904"/>
      <point x="470" y="904" type="qcurve" smooth="yes"/>
      <point x="434" y="904"/>
      <point x="372" y="860"/>
      <point x="343" y="813" type="qcurve"/>
      <point x="400" y="1406" type="line"/>
      <point x="655" y="1406" type="line"/>
      <point x="655" y="1456" type="line"/>
      <point x="353" y="1456" type="line"/>
      <point x="283" y="720" type="line"/>
      <point x="309" y="716" type="line"/>
      <point x="325" y="766"/>
      <point x="418" y="854"/>
      <point x="468" y="854" type="qcurve" smooth="yes"/>
      <point x="544" y="854"/>
      <point x="642" y="655"/>
      <point x="642" y="465" type="qcurve" smooth="yes"/>
      <point x="642" y="254"/>
      <point x="544" y="20"/>
      <point x="468" y="20" type="qcurve" smooth="yes"/>
      <point x="391" y="20"/>
      <point x="300" y="205"/>
      <point x="300" y="365" type="qcurve" smooth="yes"/>
      <point x="300" y="375" type="line"/>
      <point x="245" y="375" type="line"/>
    </contour>
  </outline>
</glyph>
<glyph name="seven" format="1">
  <advance width="950"/>
  <unicode hex="0037"/>
  <outline>
    <contour>
      <point x="226" y="0" type="line"/>
      <point x="288" y="0" type="line"/>
      <point x="746" y="1402" type="line"/>
      <point x="746" y="1456" type="line"/>
      <point x="193" y="1456" type="line"/>
      <point x="193" y="1402" type="line"/>
      <point x="694" y="1402" type="line"/>
    </contour>
  </outline>
</glyph>
<glyph name="eight" format="1">
  <advance width="916"/>
  <unicode hex="0038"/>
  <outline>
    <contour>
      <point x="108" y="384" type="qcurve" smooth="yes"/>
      <point x="108" y="189"/>
      <point x="289" y="-20"/>
      <point x="457" y="-20" type="qcurve" smooth="yes"/>
      <point x="626" y="-20"/>
      <point x="808" y="189"/>
      <point x="808" y="384" type="qcurve" smooth="yes"/>
      <point x="808" y="516"/>
      <point x="707" y="704"/>
      <point x="614" y="747" type="qcurve"/>
      <point x="614" y="751" type="line"/>
      <point x="693" y="794"/>
      <point x="777" y="963"/>
      <point x="777" y="1077" type="qcurve" smooth="yes"/>
      <point x="777" y="1265"/>
      <point x="610" y="1468"/>
      <point x="456" y="1468" type="qcurve" smooth="yes"/>
      <point x="303" y="1468"/>
      <point x="139" y="1265"/>
      <point x="139" y="1077" type="qcurve" smooth="yes"/>
      <point x="139" y="960"/>
      <point x="229" y="791"/>
      <point x="312" y="751" type="qcurve"/>
      <point x="312" y="748" type="line"/>
      <point x="214" y="710"/>
      <point x="108" y="521"/>
    </contour>
    <contour>
      <point x="325" y="1069" type="qcurve" smooth="yes"/>
      <point x="325" y="1198"/>
      <point x="387" y="1313"/>
      <point x="456" y="1313" type="qcurve" smooth="yes"/>
      <point x="527" y="1313"/>
      <point x="591" y="1198"/>
      <point x="591" y="1069" type="qcurve" smooth="yes"/>
      <point x="591" y="939"/>
      <point x="527" y="821"/>
      <point x="457" y="821" type="qcurve" smooth="yes"/>
      <point x="387" y="821"/>
      <point x="325" y="939"/>
    </contour>
    <contour>
      <point x="290" y="396" type="qcurve" smooth="yes"/>
      <point x="290" y="526"/>
      <point x="368" y="669"/>
      <point x="456" y="669" type="qcurve" smooth="yes"/>
      <point x="545" y="669"/>
      <point x="626" y="526"/>
      <point x="626" y="396" type="qcurve" smooth="yes"/>
      <point x="626" y="270"/>
      <point x="546" y="134"/>
      <point x="457" y="134" type="qcurve" smooth="yes"/>
      <point x="369" y="134"/>
      <point x="290" y="270"/>
    </contour>
  </outline>
</glyph>
<glyph name="nine" format="1">
  <advance width="950"/>
  <unicode hex="0039"/>
  <outline>
    <contour>
      <point x="236" y="1002" type="qcurve" smooth="yes"/>
      <point x="236" y="804"/>
      <point x="358" y="560"/>
      <point x="463" y="560" type="qcurve" smooth="yes"/>
      <point x="555" y="560"/>
      <point x="695" y="810"/>
      <point x="695" y="1002" type="qcurve"/>
      <point x="665" y="1002" type="line"/>
      <point x="665" y="840"/>
      <point x="543" y="610"/>
      <point x="463" y="610" type="qcurve" smooth="yes"/>
      <point x="381" y="610"/>
      <point x="291" y="814"/>
      <point x="291" y="1002" type="qcurve" smooth="yes"/>
      <point x="291" y="1208"/>
      <point x="381" y="1436"/>
      <point x="463" y="1436" type="qcurve" smooth="yes"/>
      <point x="548" y="1436"/>
      <point x="659" y="1171"/>
      <point x="659" y="852" type="qcurve" smooth="yes"/>
      <point x="659" y="802" type="line" smooth="yes"/>
      <point x="659" y="436"/>
      <point x="491" y="20"/>
      <point x="353" y="20" type="qcurve" smooth="yes"/>
      <point x="338" y="20" type="line"/>
      <point x="338" y="-30" type="line"/>
      <point x="353" y="-30" type="line" smooth="yes"/>
      <point x="518" y="-30"/>
      <point x="713" y="426"/>
      <point x="713" y="812" type="qcurve" smooth="yes"/>
      <point x="713" y="842" type="line" smooth="yes"/>
      <point x="713" y="1182"/>
      <point x="566" y="1486"/>
      <point x="463" y="1486" type="qcurve" smooth="yes"/>
      <point x="361" y="1486"/>
      <point x="236" y="1218"/>
    </contour>
  </outline>
</glyph>
<glyph name="colon" format="1">
  <advance width="600"/>
  <unicode hex="003A"/>
  <outline>
    <contour>
      <point x="176" y="96" type="qcurve" smooth="yes"/>
      <point x="176" y="146"/>
      <point x="239" y="215"/>
      <point x="299" y="215" type="qcurve" smooth="yes"/>
      <point x="359" y="215"/>
      <point x="423" y="146"/>
      <point x="423" y="96" type="qcurve" smooth="yes"/>
      <point x="423" y="47"/>
      <point x="359" y="-22"/>
      <point x="299" y="-22" type="qcurve" smooth="yes"/>
      <point x="239" y="-22"/>
      <point x="176" y="47"/>
    </contour>
    <contour>
      <point x="177" y="949" type="qcurve" smooth="yes"/>
      <point x="177" y="999"/>
      <point x="240" y="1068"/>
      <point x="300" y="1068" type="qcurve" smooth="yes"/>
      <point x="360" y="1068"/>
      <point x="424" y="999"/>
      <point x="424" y="949" type="qcurve" smooth="yes"/>
      <point x="424" y="900"/>
      <point x="360" y="831"/>
      <point x="300" y="831" type="qcurve" smooth="yes"/>
      <point x="240" y="831"/>
      <point x="177" y="900"/>
    </contour>
  </outline>
</glyph>
<glyph name="semicolon" format="1">
  <advance width="554"/>
  <unicode hex="003B"/>
  <outline>
    <contour>
      <point x="148" y="949" type="qcurve" smooth="yes"/>
      <point x="148" y="916"/>
      <point x="199" y="831"/>
      <point x="263" y="831" type="qcurve" smooth="yes"/>
      <point x="327" y="831"/>
      <point x="378" y="916"/>
      <point x="378" y="949" type="qcurve" smooth="yes"/>
      <point x="378" y="983"/>
      <point x="327" y="1068"/>
      <point x="263" y="1068" type="qcurve" smooth="yes"/>
      <point x="199" y="1068"/>
      <point x="148" y="983"/>
    </contour>
    <contour>
      <point x="119" y="-216" type="qcurve"/>
      <point x="215" y="-317" type="line"/>
      <point x="297" y="-216"/>
      <point x="362" y="3"/>
      <point x="362" y="71" type="qcurve" smooth="yes"/>
      <point x="362" y="220" type="line"/>
      <point x="175" y="220" type="line"/>
      <point x="175" y="68" type="line" smooth="yes"/>
      <point x="175" y="-37"/>
      <point x="144" y="-164"/>
    </contour>
  </outline>
</glyph>
<glyph name="less" format="1">
  <advance width="959"/>
  <unicode hex="003C"/>
  <outline>
    <contour>
      <point x="779" y="157" type="line"/>
      <point x="779" y="376" type="line"/>
      <point x="369" y="645" type="line"/>
      <point x="779" y="918" type="line"/>
      <point x="779" y="1137" type="line"/>
      <point x="172" y="712" type="line"/>
      <point x="172" y="583" type="line"/>
    </contour>
  </outline>
</glyph>
<glyph name="equal" format="1">
  <advance width="954"/>
  <unicode hex="003D"/>
  <outline>
    <contour>
      <point x="213" y="454" type="line"/>
      <point x="741" y="454" type="line"/>
      <point x="741" y="504" type="line"/>
      <point x="213" y="504" type="line"/>
    </contour>
    <contour>
      <point x="213" y="844" type="line"/>
      <point x="741" y="844" type="line"/>
      <point x="741" y="894" type="line"/>
      <point x="213" y="894" type="line"/>
    </contour>
  </outline>
</glyph>
<glyph name="greater" format="1">
  <advance width="959"/>
  <unicode hex="003E"/>
  <outline>
    <contour>
      <point x="180" y="157" type="line"/>
      <point x="787" y="583" type="line"/>
      <point x="787" y="712" type="line"/>
      <point x="180" y="1137" type="line"/>
      <point x="180" y="918" type="line"/>
      <point x="590" y="645" type="line"/>
      <point x="180" y="376" type="line"/>
    </contour>
  </outline>
</glyph>
<glyph name="question" format="1">
  <advance width="708"/>
  <unicode hex="003F"/>
  <outline>
    <contour>
      <point x="250" y="53" type="qcurve" smooth="yes"/>
      <point x="250" y="22"/>
      <point x="277" y="-22"/>
      <point x="302" y="-22" type="qcurve" smooth="yes"/>
      <point x="327" y="-22"/>
      <point x="354" y="22"/>
      <point x="354" y="53" type="qcurve" smooth="yes"/>
      <point x="354" y="84"/>
      <point x="327" y="128"/>
      <point x="302" y="128" type="qcurve" smooth="yes"/>
      <point x="277" y="128"/>
      <point x="250" y="84"/>
    </contour>
    <contour>
      <point x="156" y="1095" type="line"/>
      <point x="211" y="1095" type="line"/>
      <point x="211" y="1115" type="line" smooth="yes"/>
      <point x="211" y="1272"/>
      <point x="274" y="1426"/>
      <point x="334" y="1426" type="qcurve" smooth="yes"/>
      <point x="393" y="1426"/>
      <point x="452" y="1279"/>
      <point x="452" y="1150" type="qcurve" smooth="yes"/>
      <point x="452" y="1029"/>
      <point x="425" y="876"/>
      <point x="375" y="789" type="qcurve" smooth="yes"/>
      <point x="317" y="684"/>
      <point x="272" y="528"/>
      <point x="272" y="420" type="qcurve" smooth="yes"/>
      <point x="272" y="410" type="line"/>
      <point x="327" y="410" type="line"/>
      <point x="327" y="420" type="line" smooth="yes"/>
      <point x="327" y="496"/>
      <point x="351" y="658"/>
      <point x="398" y="744" type="qcurve" smooth="yes"/>
      <point x="460" y="844"/>
      <point x="507" y="1004"/>
      <point x="507" y="1150" type="qcurve" smooth="yes"/>
      <point x="507" y="1304"/>
      <point x="414" y="1476"/>
      <point x="334" y="1476" type="qcurve" smooth="yes"/>
      <point x="251" y="1476"/>
      <point x="156" y="1294"/>
      <point x="156" y="1115" type="qcurve" smooth="yes"/>
    </contour>
  </outline>
</glyph>
<glyph name="at" format="1">
  <advance width="1616"/>
  <unicode hex="0040"/>
  <outline>
    <contour>
      <point x="458" y="422" type="qcurve" smooth="yes"/>
      <point x="448" y="264"/>
      <point x="575" y="-1"/>
      <point x="697" y="-1" type="qcurve" smooth="yes"/>
      <point x="769" y="-1"/>
      <point x="870" y="96"/>
      <point x="874" y="106" type="qcurve"/>
      <point x="875" y="101"/>
      <point x="994" y="-1"/>
      <point x="1080" y="-1" type="qcurve" smooth="yes"/>
      <point x="1250" y="-1"/>
      <point x="1450" y="379"/>
      <point x="1450" y="649" type="qcurve" smooth="yes"/>
      <point x="1450" y="988"/>
      <point x="1093" y="1484"/>
      <point x="812" y="1484" type="qcurve" smooth="yes"/>
      <point x="536" y="1484"/>
      <point x="116" y="874"/>
      <point x="116" y="478" type="qcurve" smooth="yes"/>
      <point x="116" y="67"/>
      <point x="483" y="-453"/>
      <point x="761" y="-453" type="qcurve" smooth="yes"/>
      <point x="844" y="-453"/>
      <point x="987" y="-409"/>
      <point x="1044" y="-354" type="qcurve"/>
      <point x="1044" y="-163" type="line"/>
      <point x="948" y="-246"/>
      <point x="801" y="-298"/>
      <point x="763" y="-298" type="qcurve" smooth="yes"/>
      <point x="571" y="-298"/>
      <point x="305" y="98"/>
      <point x="305" y="478" type="qcurve" smooth="yes"/>
      <point x="305" y="856"/>
      <point x="621" y="1333"/>
      <point x="809" y="1333" type="qcurve" smooth="yes"/>
      <point x="1020" y="1333"/>
      <point x="1278" y="921"/>
      <point x="1278" y="649" type="qcurve" smooth="yes"/>
      <point x="1278" y="363"/>
      <point x="1152" y="137"/>
      <point x="1095" y="137" type="qcurve" smooth="yes"/>
      <point x="1083" y="137"/>
      <point x="1016" y="196"/>
      <point x="1027" y="374" type="qcurve"/>
      <point x="1104" y="934" type="line"/>
      <point x="1043" y="934" type="line"/>
      <point x="1007" y="976"/>
      <point x="906" y="1040"/>
      <point x="813" y="1040" type="qcurve" smooth="yes"/>
      <point x="686" y="1040"/>
      <point x="474" y="697"/>
    </contour>
    <contour>
      <point x="655" y="464" type="qcurve" smooth="yes"/>
      <point x="668" y="672"/>
      <point x="774" y="901"/>
      <point x="824" y="901" type="qcurve" smooth="yes"/>
      <point x="836" y="901"/>
      <point x="895" y="879"/>
      <point x="911" y="866" type="qcurve"/>
      <point x="843" y="369" type="line"/>
      <point x="820" y="249"/>
      <point x="744" y="155"/>
      <point x="728" y="155" type="qcurve" smooth="yes"/>
      <point x="694" y="155"/>
      <point x="644" y="286"/>
    </contour>
  </outline>
</glyph>
<glyph name="B" format="1">
  <advance width="751"/>
  <unicode hex="0042"/>
  <outline>
    <contour>
      <point x="170" y="0" type="line"/>
      <point x="170" y="1456" type="line"/>
      <point x="376" y="1456" type="line" smooth="yes"/>
      <point x="489" y="1456"/>
      <point x="613" y="1280"/>
      <point x="613" y="1094" type="qcurve" smooth="yes"/>
      <point x="613" y="964"/>
      <point x="541" y="787"/>
      <point x="481" y="766" type="qcurve"/>
      <point x="481" y="762" type="line"/>
      <point x="560" y="740"/>
      <point x="651" y="544"/>
      <point x="651" y="392" type="qcurve" smooth="yes"/>
      <point x="651" y="206"/>
      <point x="521" y="0"/>
      <point x="406" y="0" type="qcurve" smooth="yes"/>
    </contour>
    <contour>
      <point x="224" y="50" type="line"/>
      <point x="406" y="50" type="line" smooth="yes"/>
      <point x="504" y="50"/>
      <point x="596" y="236"/>
      <point x="596" y="392" type="qcurve" smooth="yes"/>
      <point x="596" y="548"/>
      <point x="504" y="733"/>
      <point x="406" y="733" type="qcurve" smooth="yes"/>
      <point x="224" y="733" type="line"/>
    </contour>
    <contour>
      <point x="224" y="783" type="line"/>
      <point x="376" y="783" type="line" smooth="yes"/>
      <point x="473" y="783"/>
      <point x="558" y="948"/>
      <point x="558" y="1094" type="qcurve" smooth="yes"/>
      <point x="558" y="1244"/>
      <point x="473" y="1406"/>
      <point x="376" y="1406" type="qcurve" smooth="yes"/>
      <point x="224" y="1406" type="line"/>
    </contour>
  </outline>
</glyph>
<glyph name="C" format="1">
  <advance width="749"/>
  <unicode hex="0043"/>
  <outline>
    <contour>
      <point x="115" y="682" type="qcurve" smooth="yes"/>
      <point x="115" y="774" type="line" smooth="yes"/>
      <point x="115" y="1110"/>
      <point x="295" y="1486"/>
      <point x="431" y="1486" type="qcurve" smooth="yes"/>
      <point x="556" y="1486"/>
      <point x="699" y="1200"/>
      <point x="699" y="1000" type="qcurve" smooth="yes"/>
      <point x="699" y="990" type="line"/>
      <point x="644" y="990" type="line"/>
      <point x="644" y="1000" type="line" smooth="yes"/>
      <point x="640" y="1162"/>
      <point x="536" y="1436"/>
      <point x="431" y="1436" type="qcurve" smooth="yes"/>
      <point x="316" y="1436"/>
      <point x="170" y="1084"/>
      <point x="170" y="774" type="qcurve" smooth="yes"/>
      <point x="170" y="682" type="line" smooth="yes"/>
      <point x="170" y="372"/>
      <point x="316" y="20"/>
      <point x="431" y="20" type="qcurve" smooth="yes"/>
      <point x="536" y="20"/>
      <point x="640" y="294"/>
      <point x="644" y="456" type="qcurve"/>
      <point x="644" y="466" type="line"/>
      <point x="699" y="466" type="line"/>
      <point x="699" y="456" type="line" smooth="yes"/>
      <point x="699" y="256"/>
      <point x="556" y="-30"/>
      <point x="431" y="-30" type="qcurve" smooth="yes"/>
      <point x="295" y="-30"/>
      <point x="115" y="346"/>
    </contour>
    <contour>
      <point x="431" y="0" type="move" name="bottom"/>
    </contour>
  </outline>
</glyph>
<glyph name="F" format="1">
  <advance width="652"/>
  <unicode hex="0046"/>
  <outline>
    <contour>
      <point x="170" y="0" type="line"/>
      <point x="224" y="0" type="line"/>
      <point x="224" y="697" type="line"/>
      <point x="535" y="697" type="line"/>
      <point x="535" y="747" type="line"/>
      <point x="224" y="747" type="line"/>
      <point x="224" y="1406" type="line"/>
      <point x="594" y="1406" type="line"/>
      <point x="594" y="1456" type="line"/>
      <point x="170" y="1456" type="line"/>
    </contour>
  </outline>
</glyph>
<glyph name="G" format="1">
  <advance width="762"/>
  <unicode hex="0047"/>
  <outline>
    <contour>
      <point x="115" y="682" type="line" smooth="yes"/>
      <point x="115" y="346"/>
      <point x="297" y="-30"/>
      <point x="451" y="-30" type="qcurve" smooth="yes"/>
      <point x="535" y="-30"/>
      <point x="635" y="46"/>
      <point x="682" y="100" type="qcurve"/>
      <point x="682" y="670" type="line"/>
      <point x="431" y="670" type="line"/>
      <point x="431" y="620" type="line"/>
      <point x="632" y="620" type="line"/>
      <point x="632" y="120" type="line"/>
      <point x="589" y="70"/>
      <point x="510" y="20"/>
      <point x="451" y="20" type="qcurve" smooth="yes"/>
      <point x="318" y="20"/>
      <point x="170" y="372"/>
      <point x="170" y="682" type="qcurve" smooth="yes"/>
      <point x="170" y="774" type="line" smooth="yes"/>
      <point x="170" y="1084"/>
      <point x="312" y="1436"/>
      <point x="421" y="1436" type="qcurve" smooth="yes"/>
      <point x="522" y="1436"/>
      <point x="623" y="1180"/>
      <point x="627" y="1040" type="qcurve" smooth="yes"/>
      <point x="627" y="1030" type="line"/>
      <point x="682" y="1030" type="line"/>
      <point x="682" y="1040" type="line" smooth="yes"/>
      <point x="682" y="1220"/>
      <point x="543" y="1486"/>
      <point x="421" y="1486" type="qcurve" smooth="yes"/>
      <point x="291" y="1486"/>
      <point x="115" y="1110"/>
      <point x="115" y="774" type="qcurve" smooth="yes"/>
    </contour>
  </outline>
</glyph>
<glyph name="H" format="1">
  <advance width="902"/>
  <unicode hex="0048"/>
  <outline>
    <contour>
      <point x="170" y="0" type="line"/>
      <point x="224" y="0" type="line"/>
      <point x="224" y="726" type="line"/>
      <point x="678" y="726" type="line"/>
      <point x="678" y="0" type="line"/>
      <point x="732" y="0" type="line"/>
      <point x="732" y="1456" type="line"/>
      <point x="678" y="1456" type="line"/>
      <point x="678" y="776" type="line"/>
      <point x="224" y="776" type="line"/>
      <point x="224" y="1456" type="line"/>
      <point x="170" y="1456" type="line"/>
    </contour>
  </outline>
</glyph>
<glyph name="J" format="1">
  <advance width="585"/>
  <unicode hex="004A"/>
  <outline>
    <contour>
      <point x="25" y="400" type="line" smooth="yes"/>
      <point x="25" y="200.0"/>
      <point x="126" y="-30"/>
      <point x="228" y="-30" type="qcurve" smooth="yes"/>
      <point x="330" y="-30"/>
      <point x="430" y="214.0"/>
      <point x="430" y="425" type="qcurve" smooth="yes"/>
      <point x="430" y="1456" type="line"/>
      <point x="376" y="1456" type="line"/>
      <point x="376" y="425" type="line" smooth="yes"/>
      <point x="376" y="230.99684383622855"/>
      <point x="306" y="20"/>
      <point x="228" y="20" type="qcurve" smooth="yes"/>
      <point x="150" y="20"/>
      <point x="80" y="214.0"/>
      <point x="80" y="400" type="qcurve" smooth="yes"/>
      <point x="80" y="410" type="line"/>
      <point x="25" y="410" type="line"/>
    </contour>
  </outline>
</glyph>
<glyph name="K" format="1">
  <advance width="740"/>
  <unicode hex="004B"/>
  <outline>
    <contour>
      <point x="170" y="0" type="line"/>
      <point x="170" y="1456" type="line"/>
      <point x="224" y="1456" type="line"/>
      <point x="224" y="743" type="line"/>
      <point x="734" y="1456" type="line"/>
      <point x="776" y="1456" type="line"/>
      <point x="224" y="626" type="line"/>
      <point x="224" y="0" type="line"/>
    </contour>
    <contour>
      <point x="712" y="0" type="line"/>
      <point x="278" y="764" type="line"/>
      <point x="310" y="822" type="line"/>
      <point x="760" y="0" type="line"/>
    </contour>
  </outline>
</glyph>
<glyph name="M" format="1">
  <advance width="1129"/>
  <unicode hex="004D"/>
  <outline>
    <contour>
      <point x="170" y="0" type="line"/>
      <point x="224" y="0" type="line"/>
      <point x="224" y="1185" type="line" smooth="yes"/>
      <point x="224" y="1225"/>
      <point x="220" y="1305"/>
      <point x="218" y="1345" type="qcurve"/>
      <point x="225" y="1345" type="line"/>
      <point x="229" y="1305"/>
      <point x="243" y="1225"/>
      <point x="253" y="1185" type="qcurve" smooth="yes"/>
      <point x="536" y="0" type="line"/>
      <point x="593" y="0" type="line"/>
      <point x="876" y="1185" type="line" smooth="yes"/>
      <point x="886" y="1225"/>
      <point x="900" y="1305"/>
      <point x="904" y="1345" type="qcurve"/>
      <point x="912" y="1345" type="line"/>
      <point x="909" y="1305"/>
      <point x="905" y="1225"/>
      <point x="905" y="1185" type="qcurve" smooth="yes"/>
      <point x="905" y="0" type="line"/>
      <point x="959" y="0" type="line"/>
      <point x="959" y="1456" type="line"/>
      <point x="889" y="1456" type="line"/>
      <point x="596" y="215" type="line" smooth="yes"/>
      <point x="588" y="180"/>
      <point x="574" y="120"/>
      <point x="569" y="75" type="qcurve"/>
      <point x="564" y="75" type="line"/>
      <point x="559" y="120"/>
      <point x="545" y="180"/>
      <point x="537" y="215" type="qcurve" smooth="yes"/>
      <point x="244" y="1456" type="line"/>
      <point x="170" y="1456" type="line"/>
    </contour>
  </outline>
</glyph>
<glyph name="N" format="1">
  <advance width="886"/>
  <unicode hex="004E"/>
  <outline>
    <contour>
      <point x="170" y="0" type="line"/>
      <point x="224" y="0" type="line"/>
      <point x="224" y="1235" type="line" smooth="yes"/>
      <point x="224" y="1275"/>
      <point x="222" y="1350"/>
      <point x="220" y="1390" type="qcurve"/>
      <point x="225" y="1390" type="line"/>
      <point x="232" y="1350"/>
      <point x="250" y="1286"/>
      <point x="259" y="1255" type="qcurve" smooth="yes"/>
      <point x="630" y="0" type="line"/>
      <point x="716" y="0" type="line"/>
      <point x="716" y="1456" type="line"/>
      <point x="662" y="1456" type="line"/>
      <point x="662" y="220" type="line" smooth="yes"/>
      <point x="662" y="180"/>
      <point x="664" y="105"/>
      <point x="666" y="65" type="qcurve"/>
      <point x="661" y="65" type="line"/>
      <point x="654" y="105"/>
      <point x="636" y="169"/>
      <point x="627" y="200" type="qcurve" smooth="yes"/>
      <point x="256" y="1456" type="line"/>
      <point x="170" y="1456" type="line"/>
    </contour>
  </outline>
</glyph>
<glyph name="P" format="1">
  <advance width="725"/>
  <unicode hex="0050"/>
  <outline>
    <contour>
      <point x="170" y="0" type="line"/>
      <point x="224" y="0" type="line"/>
      <point x="224" y="620" type="line"/>
      <point x="374" y="620" type="line" smooth="yes"/>
      <point x="507" y="620"/>
      <point x="625" y="856"/>
      <point x="625" y="1038" type="qcurve" smooth="yes"/>
      <point x="625" y="1220"/>
      <point x="507" y="1456"/>
      <point x="374" y="1456" type="qcurve" smooth="yes"/>
      <point x="170" y="1456" type="line"/>
    </contour>
    <contour>
      <point x="224" y="670" type="line"/>
      <point x="224" y="1406" type="line"/>
      <point x="374" y="1406" type="line" smooth="yes"/>
      <point x="483" y="1406"/>
      <point x="570" y="1196"/>
      <point x="570" y="1038" type="qcurve" smooth="yes"/>
      <point x="570" y="880"/>
      <point x="483" y="670"/>
      <point x="374" y="670" type="qcurve" smooth="yes"/>
    </contour>
  </outline>
</glyph>
<glyph name="Q" format="1">
  <advance width="842"/>
  <unicode hex="0051"/>
  <outline>
    <contour>
      <point x="115" y="682" type="line" smooth="yes"/>
      <point x="115" y="346"/>
      <point x="277" y="-30"/>
      <point x="421" y="-30" type="qcurve" smooth="yes"/>
      <point x="565" y="-30"/>
      <point x="727" y="346"/>
      <point x="727" y="682" type="qcurve" smooth="yes"/>
      <point x="727" y="774" type="line" smooth="yes"/>
      <point x="727" y="1110"/>
      <point x="565" y="1486"/>
      <point x="421" y="1486" type="qcurve" smooth="yes"/>
      <point x="277" y="1486"/>
      <point x="115" y="1110"/>
      <point x="115" y="774" type="qcurve" smooth="yes"/>
    </contour>
    <contour>
      <point x="170" y="682" type="qcurve" smooth="yes"/>
      <point x="170" y="774" type="line" smooth="yes"/>
      <point x="170" y="1090"/>
      <point x="299" y="1436"/>
      <point x="421" y="1436" type="qcurve" smooth="yes"/>
      <point x="543" y="1436"/>
      <point x="672" y="1090"/>
      <point x="672" y="774" type="qcurve" smooth="yes"/>
      <point x="672" y="682" type="line" smooth="yes"/>
      <point x="672" y="366"/>
      <point x="543" y="20"/>
      <point x="421" y="20" type="qcurve" smooth="yes"/>
      <point x="299" y="20"/>
      <point x="170" y="366"/>
    </contour>
    <contour>
      <point x="740" y="-210" type="line"/>
      <point x="776" y="-174" type="line"/>
      <point x="396" y="306" type="line"/>
      <point x="360" y="270" type="line"/>
    </contour>
  </outline>
</glyph>
<glyph name="T" format="1">
  <advance width="658"/>
  <unicode hex="0054"/>
  <outline>
    <contour>
      <point x="24" y="1406" type="line"/>
      <point x="302" y="1406" type="line"/>
      <point x="302" y="0" type="line"/>
      <point x="356" y="0" type="line"/>
      <point x="356" y="1406" type="line"/>
      <point x="634" y="1406" type="line"/>
      <point x="634" y="1456" type="line"/>
      <point x="24" y="1456" type="line"/>
    </contour>
  </outline>
</glyph>
<glyph name="V" format="1">
  <advance width="616"/>
  <unicode hex="0056"/>
  <outline>
    <contour>
      <point x="0" y="1456" type="line"/>
      <point x="270" y="-10" type="line"/>
      <point x="346" y="-10" type="line"/>
      <point x="616" y="1456" type="line"/>
      <point x="562" y="1456" type="line"/>
      <point x="332" y="178" type="line" smooth="yes"/>
      <point x="326" y="143"/>
      <point x="318" y="83"/>
      <point x="315" y="50" type="qcurve"/>
      <point x="305" y="50" type="line"/>
      <point x="302" y="83"/>
      <point x="294" y="143"/>
      <point x="288" y="178" type="qcurve" smooth="yes"/>
      <point x="58" y="1456" type="line"/>
    </contour>
  </outline>
</glyph>
<glyph name="W" format="1">
  <advance width="1166"/>
  <unicode hex="0057"/>
  <outline>
    <contour>
      <point x="272" y="-10" type="line"/>
      <point x="50" y="1456" type="line"/>
      <point x="92" y="1456" type="line"/>
      <point x="288" y="230" type="line" smooth="yes"/>
      <point x="294" y="190"/>
      <point x="297" y="100"/>
      <point x="299" y="60" type="qcurve"/>
      <point x="303" y="60" type="line"/>
      <point x="305" y="100"/>
      <point x="307" y="190"/>
      <point x="314" y="230" type="qcurve" smooth="yes"/>
      <point x="554" y="1456" type="line"/>
      <point x="614" y="1456" type="line"/>
      <point x="850" y="230" type="line" smooth="yes"/>
      <point x="857" y="190"/>
      <point x="859" y="100"/>
      <point x="861" y="60" type="qcurve"/>
      <point x="865" y="60" type="line"/>
      <point x="867" y="100"/>
      <point x="870" y="190"/>
      <point x="876" y="230" type="qcurve" smooth="yes"/>
      <point x="1076" y="1456" type="line"/>
      <point x="1116" y="1456" type="line"/>
      <point x="894" y="-10" type="line"/>
      <point x="838" y="-10" type="line"/>
      <point x="596" y="1232" type="line" smooth="yes"/>
      <point x="589" y="1272"/>
      <point x="585" y="1352"/>
      <point x="584" y="1390" type="qcurve"/>
      <point x="582" y="1390" type="line"/>
      <point x="580" y="1352"/>
      <point x="576" y="1272"/>
      <point x="569" y="1232" type="qcurve" smooth="yes"/>
      <point x="328" y="-10" type="line"/>
    </contour>
  </outline>
</glyph>
<glyph name="X" format="1">
  <advance width="726"/>
  <unicode hex="0058"/>
  <outline>
    <contour>
      <point x="25" y="0" type="line"/>
      <point x="345" y="763" type="line"/>
      <point x="344" y="763" type="line"/>
      <point x="646" y="1456" type="line"/>
      <point x="684" y="1456" type="line"/>
      <point x="382" y="713" type="line"/>
      <point x="382" y="713" type="line"/>
      <point x="63" y="0" type="line"/>
    </contour>
    <contour>
      <point x="42" y="1456" type="line"/>
      <point x="83" y="1456" type="line"/>
      <point x="384" y="763" type="line"/>
      <point x="383" y="763" type="line"/>
      <point x="701" y="0" type="line"/>
      <point x="659" y="0" type="line"/>
      <point x="342" y="713" type="line"/>
      <point x="344" y="713" type="line"/>
    </contour>
  </outline>
</glyph>
<glyph name="Y" format="1">
  <advance width="654"/>
  <unicode hex="0059"/>
  <outline>
    <contour>
      <point x="300" y="0" type="line"/>
      <point x="354" y="0" type="line"/>
      <point x="354" y="600" type="line"/>
      <point x="639" y="1456" type="line"/>
      <point x="589" y="1456" type="line"/>
      <point x="367" y="785" type="line" smooth="yes"/>
      <point x="357" y="755"/>
      <point x="339" y="695"/>
      <point x="332" y="665" type="qcurve"/>
      <point x="328" y="665" type="line"/>
      <point x="320" y="695"/>
      <point x="302" y="755"/>
      <point x="292" y="785" type="qcurve" smooth="yes"/>
      <point x="69" y="1456" type="line"/>
      <point x="15" y="1456" type="line"/>
      <point x="300" y="600" type="line"/>
    </contour>
  </outline>
</glyph>
<glyph name="Z" format="1">
  <advance width="741"/>
  <unicode hex="005A"/>
  <outline>
    <contour>
      <point x="36" y="0" type="line"/>
      <point x="705" y="0" type="line"/>
      <point x="705" y="50" type="line"/>
      <point x="99" y="50" type="line"/>
      <point x="673" y="1424" type="line"/>
      <point x="673" y="1456" type="line"/>
      <point x="48" y="1456" type="line"/>
      <point x="48" y="1406" type="line"/>
      <point x="610" y="1406" type="line"/>
      <point x="36" y="32" type="line"/>
    </contour>
  </outline>
</glyph>
<glyph name="bracketleft" format="1">
  <advance width="520"/>
  <unicode hex="005B"/>
  <outline>
    <contour>
      <point x="144" y="-310" type="line"/>
      <point x="371" y="-310" type="line"/>
      <point x="371" y="-260" type="line"/>
      <point x="199" y="-260" type="line"/>
      <point x="199" y="1406" type="line"/>
      <point x="371" y="1406" type="line"/>
      <point x="371" y="1456" type="line"/>
      <point x="144" y="1456" type="line"/>
    </contour>
  </outline>
</glyph>
<glyph name="bracketright" format="1">
  <advance width="560"/>
  <unicode hex="005D"/>
  <outline>
    <contour>
      <point x="413" y="-312" type="line"/>
      <point x="413" y="1456" type="line"/>
      <point x="28" y="1456" type="line"/>
      <point x="28" y="1296" type="line"/>
      <point x="224" y="1296" type="line"/>
      <point x="224" y="-152" type="line"/>
      <point x="28" y="-152" type="line"/>
      <point x="28" y="-312" type="line"/>
    </contour>
  </outline>
</glyph>
<glyph name="asciicircum" format="1">
  <advance width="760"/>
  <unicode hex="005E"/>
  <outline>
    <contour>
      <point x="25" y="720" type="line"/>
      <point x="95" y="720" type="line"/>
      <point x="380" y="1353" type="line"/>
      <point x="665" y="720" type="line"/>
      <point x="735" y="720" type="line"/>
      <point x="400" y="1456" type="line"/>
      <point x="360" y="1456" type="line"/>
    </contour>
  </outline>
</glyph>
<glyph name="underscore" format="1">
  <advance width="693.0"/>
  <unicode hex="005F"/>
  <outline>
    <contour>
      <point x="0" y="-150" type="line"/>
      <point x="231" y="-150" type="line"/>
      <point x="231" y="-100" type="line"/>
      <point x="0" y="-100" type="line"/>
    </contour>
    <contour>
      <point x="231" y="-150" type="line"/>
      <point x="462" y="-150" type="line"/>
      <point x="462" y="-100" type="line"/>
      <point x="231" y="-100" type="line"/>
    </contour>
    <contour>
      <point x="462" y="-150" type="line"/>
      <point x="693" y="-150" type="line"/>
      <point x="693" y="-100" type="line"/>
      <point x="462" y="-100" type="line"/>
    </contour>
  </outline>
</glyph>
<glyph name="grave" format="1">
  <advance width="933"/>
  <unicode hex="0060"/>
  <outline>
    <contour>
      <point x="464" y="1457" type="line"/>
      <point x="267" y="1457" type="line"/>
      <point x="444" y="1153" type="line"/>
      <point x="613" y="1153" type="line"/>
      <point x="613" y="1146" type="line"/>
    </contour>
  </outline>
</glyph>
<glyph name="c" format="1">
  <advance width="530"/>
  <unicode hex="0063"/>
  <outline>
    <contour>
      <point x="85" y="510" type="line" smooth="yes"/>
      <point x="85" y="272"/>
      <point x="205" y="-30"/>
      <point x="309" y="-30" type="qcurve" smooth="yes"/>
      <point x="404" y="-30"/>
      <point x="495" y="192"/>
      <point x="495" y="337" type="qcurve" smooth="yes"/>
      <point x="495" y="342" type="line"/>
      <point x="445" y="342" type="line"/>
      <point x="445" y="337" type="line" smooth="yes"/>
      <point x="445" y="212.0"/>
      <point x="380.3442622950819" y="20.0"/>
      <point x="309" y="20" type="qcurve" smooth="yes"/>
      <point x="223.28310502283102" y="20.0"/>
      <point x="139" y="304.0"/>
      <point x="139" y="510" type="qcurve" smooth="yes"/>
      <point x="139" y="542" type="line" smooth="yes"/>
      <point x="139" y="748.0"/>
      <point x="223.28310502283102" y="1032.0"/>
      <point x="309" y="1032" type="qcurve" smooth="yes"/>
      <point x="380.3442622950819" y="1032.0"/>
      <point x="445" y="840.0"/>
      <point x="445" y="715" type="qcurve" smooth="yes"/>
      <point x="445" y="710" type="line"/>
      <point x="495" y="710" type="line"/>
      <point x="495" y="715" type="line" smooth="yes"/>
      <point x="495" y="860"/>
      <point x="404" y="1082"/>
      <point x="309" y="1082" type="qcurve" smooth="yes"/>
      <point x="205" y="1082"/>
      <point x="85" y="780"/>
      <point x="85" y="542" type="qcurve" smooth="yes"/>
    </contour>
  </outline>
</glyph>
<glyph name="e" format="1">
  <advance width="819"/>
  <unicode hex="0065"/>
  <outline>
    <contour>
      <point x="85" y="484" type="line" smooth="yes"/>
      <point x="85" y="292"/>
      <point x="258" y="-20"/>
      <point x="447" y="-20" type="qcurve" smooth="yes"/>
      <point x="572" y="-20"/>
      <point x="722" y="129"/>
      <point x="756" y="206" type="qcurve" smooth="yes"/>
      <point x="763" y="222" type="line"/>
      <point x="629" y="296" type="line"/>
      <point x="619" y="274" type="line" smooth="yes"/>
      <point x="600" y="231"/>
      <point x="530" y="140"/>
      <point x="460" y="140" type="qcurve" smooth="yes"/>
      <point x="380" y="140"/>
      <point x="273" y="312"/>
      <point x="273" y="490" type="qcurve" smooth="yes"/>
      <point x="273" y="556" type="line" smooth="yes"/>
      <point x="273" y="755"/>
      <point x="366" y="920"/>
      <point x="442" y="920" type="qcurve" smooth="yes"/>
      <point x="508" y="920"/>
      <point x="569" y="825"/>
      <point x="569" y="744" type="qcurve" smooth="yes"/>
      <point x="569" y="635" type="line"/>
      <point x="158" y="635" type="line"/>
      <point x="158" y="489" type="line"/>
      <point x="759" y="489" type="line"/>
      <point x="759" y="672" type="line" smooth="yes"/>
      <point x="759" y="853"/>
      <point x="611" y="1072"/>
      <point x="446" y="1072" type="qcurve" smooth="yes"/>
      <point x="266" y="1072"/>
      <point x="85" y="766"/>
      <point x="85" y="565" type="qcurve" smooth="yes"/>
    </contour>
  </outline>
</glyph>
<glyph name="f" format="1">
  <advance width="445"/>
  <unicode hex="0066"/>
  <outline>
    <contour>
      <point x="138" y="0" type="line"/>
      <point x="324" y="0" type="line"/>
      <point x="324" y="974" type="line"/>
      <point x="324" y="1004" type="line"/>
      <point x="324" y="1208" type="line" smooth="yes"/>
      <point x="324" y="1322"/>
      <point x="391" y="1399"/>
      <point x="428" y="1399" type="qcurve" smooth="yes"/>
      <point x="449" y="1399"/>
      <point x="493" y="1387"/>
      <point x="516" y="1375" type="qcurve"/>
      <point x="523" y="1537" type="line"/>
      <point x="496" y="1549"/>
      <point x="448" y="1557"/>
      <point x="406" y="1557" type="qcurve" smooth="yes"/>
      <point x="274" y="1557"/>
      <point x="138" y="1387"/>
      <point x="138" y="1228" type="qcurve" smooth="yes"/>
    </contour>
    <contour>
      <point x="26" y="910" type="line"/>
      <point x="480" y="910" type="line"/>
      <point x="480" y="1052" type="line"/>
      <point x="248" y="1052" type="line"/>
      <point x="227" y="1052" type="line"/>
      <point x="26" y="1052" type="line"/>
    </contour>
  </outline>
</glyph>
<glyph name="k" format="1">
  <advance width="563"/>
  <unicode hex="006B"/>
  <outline>
    <contour>
      <point x="148" y="0" type="line"/>
      <point x="202" y="0" type="line"/>
      <point x="202" y="466" type="line"/>
      <point x="547" y="1052" type="line"/>
      <point x="496" y="1052" type="line"/>
      <point x="202" y="602" type="line"/>
      <point x="202" y="1536" type="line"/>
      <point x="148" y="1536" type="line"/>
    </contour>
    <contour>
      <point x="526" y="0" type="line"/>
      <point x="579" y="0" type="line"/>
      <point x="263" y="635" type="line"/>
      <point x="240" y="548" type="line"/>
    </contour>
  </outline>
</glyph>
<glyph name="l" format="1">
  <advance width="500"/>
  <unicode hex="006C"/>
  <outline>
    <contour>
      <point x="156" y="0" type="line"/>
      <point x="344" y="0" type="line"/>
      <point x="344" y="1536" type="line"/>
      <point x="156" y="1536" type="line"/>
    </contour>
  </outline>
</glyph>
<glyph name="m" format="1">
  <advance width="1316"/>
  <unicode hex="006D"/>
  <outline>
    <contour>
      <point x="148" y="0" type="line"/>
      <point x="334" y="0" type="line"/>
      <point x="334" y="775" type="line"/>
      <point x="346" y="828"/>
      <point x="420" y="916"/>
      <point x="471" y="916" type="qcurve" smooth="yes"/>
      <point x="525" y="916"/>
      <point x="570" y="835"/>
      <point x="570" y="722" type="qcurve" smooth="yes"/>
      <point x="570" y="0" type="line"/>
      <point x="756" y="0" type="line"/>
      <point x="756" y="770" type="line"/>
      <point x="765" y="828"/>
      <point x="826" y="916"/>
      <point x="880" y="916" type="qcurve" smooth="yes"/>
      <point x="934" y="916"/>
      <point x="992" y="825"/>
      <point x="992" y="722" type="qcurve" smooth="yes"/>
      <point x="992" y="0" type="line"/>
      <point x="1178" y="0" type="line"/>
      <point x="1178" y="745" type="line" smooth="yes"/>
      <point x="1178" y="909"/>
      <point x="1053" y="1072"/>
      <point x="936" y="1072" type="qcurve" smooth="yes"/>
      <point x="844" y="1072"/>
      <point x="731" y="988"/>
      <point x="711" y="945" type="qcurve"/>
      <point x="694" y="1001"/>
      <point x="604" y="1072"/>
      <point x="530" y="1072" type="qcurve" smooth="yes"/>
      <point x="455" y="1072"/>
      <point x="344" y="987"/>
      <point x="323" y="943" type="qcurve"/>
      <point x="316" y="943" type="line"/>
      <point x="310" y="1052" type="line"/>
      <point x="148" y="1052" type="line"/>
    </contour>
  </outline>
</glyph>
<glyph name="n" format="1">
  <advance width="915"/>
  <unicode hex="006E"/>
  <outline>
    <contour>
      <point x="148" y="0" type="line"/>
      <point x="334" y="0" type="line"/>
      <point x="334" y="775" type="line"/>
      <point x="350" y="830"/>
      <point x="430" y="916"/>
      <point x="478" y="916" type="qcurve" smooth="yes"/>
      <point x="531" y="916"/>
      <point x="591" y="833"/>
      <point x="591" y="746" type="qcurve" smooth="yes"/>
      <point x="591" y="0" type="line"/>
      <point x="777" y="0" type="line"/>
      <point x="777" y="745" type="line" smooth="yes"/>
      <point x="777" y="909"/>
      <point x="658" y="1072"/>
      <point x="544" y="1072" type="qcurve" smooth="yes"/>
      <point x="466" y="1072"/>
      <point x="359" y="1000"/>
      <point x="327" y="943" type="qcurve"/>
      <point x="320" y="943" type="line"/>
      <point x="314" y="1052" type="line"/>
      <point x="148" y="1052" type="line"/>
    </contour>
  </outline>
</glyph>
<glyph name="p" format="1">
  <advance width="658"/>
  <unicode hex="0070"/>
  <outline>
    <contour>
      <point x="148" y="-416" type="line"/>
      <point x="202" y="-416" type="line"/>
      <point x="202" y="94" type="line"/>
      <point x="230" y="42"/>
      <point x="317" y="-20"/>
      <point x="374" y="-20" type="qcurve" smooth="yes"/>
      <point x="473" y="-20"/>
      <point x="573" y="280"/>
      <point x="573" y="510" type="qcurve" smooth="yes"/>
      <point x="573" y="542" type="line" smooth="yes"/>
      <point x="573" y="772"/>
      <point x="473" y="1072"/>
      <point x="374" y="1072" type="qcurve" smooth="yes"/>
      <point x="317" y="1072"/>
      <point x="223" y="998"/>
      <point x="199" y="945" type="qcurve"/>
      <point x="198" y="945" type="line"/>
      <point x="200" y="1052" type="line"/>
      <point x="148" y="1052" type="line"/>
    </contour>
    <contour>
      <point x="202" y="172" type="qcurve"/>
      <point x="202" y="880" type="line"/>
      <point x="221" y="936"/>
      <point x="298" y="1022"/>
      <point x="354" y="1022" type="qcurve" smooth="yes"/>
      <point x="439" y="1022"/>
      <point x="519" y="745"/>
      <point x="519" y="542" type="qcurve" smooth="yes"/>
      <point x="519" y="510" type="line" smooth="yes"/>
      <point x="519" y="307"/>
      <point x="439" y="30"/>
      <point x="354" y="30" type="qcurve" smooth="yes"/>
      <point x="298" y="30"/>
      <point x="221" y="116"/>
    </contour>
  </outline>
</glyph>
<glyph name="q" format="1">
  <advance width="658"/>
  <unicode hex="0071"/>
  <outline>
    <contour>
      <point x="85" y="510" type="line" smooth="yes"/>
      <point x="85" y="280"/>
      <point x="185" y="-20"/>
      <point x="284" y="-20" type="qcurve" smooth="yes"/>
      <point x="341" y="-20"/>
      <point x="428" y="42"/>
      <point x="456" y="94" type="qcurve"/>
      <point x="456" y="-416" type="line"/>
      <point x="510" y="-416" type="line"/>
      <point x="510" y="1052" type="line"/>
      <point x="458" y="1052" type="line"/>
      <point x="460" y="945" type="line"/>
      <point x="459" y="945" type="line"/>
      <point x="435" y="998"/>
      <point x="341" y="1072"/>
      <point x="284" y="1072" type="qcurve" smooth="yes"/>
      <point x="185" y="1072"/>
      <point x="85" y="772"/>
      <point x="85" y="542" type="qcurve" smooth="yes"/>
    </contour>
    <contour>
      <point x="139" y="510" type="qcurve" smooth="yes"/>
      <point x="139" y="542" type="line" smooth="yes"/>
      <point x="139" y="745"/>
      <point x="219" y="1022"/>
      <point x="304" y="1022" type="qcurve" smooth="yes"/>
      <point x="360" y="1022"/>
      <point x="437" y="936"/>
      <point x="456" y="880" type="qcurve"/>
      <point x="456" y="172" type="line"/>
      <point x="437" y="116"/>
      <point x="360" y="30"/>
      <point x="304" y="30" type="qcurve" smooth="yes"/>
      <point x="219" y="30"/>
      <point x="139" y="307"/>
    </contour>
  </outline>
</glyph>
<glyph name="u" format="1">
  <advance width="916"/>
  <unicode hex="0075"/>
  <outline>
    <contour>
      <point x="138" y="287" type="line" smooth="yes"/>
      <point x="138" y="132"/>
      <point x="260" y="-15"/>
      <point x="367" y="-15" type="qcurve" smooth="yes"/>
      <point x="461" y="-15"/>
      <point x="566" y="65"/>
      <point x="591" y="116" type="qcurve"/>
      <point x="595" y="0" type="line"/>
      <point x="768" y="0" type="line"/>
      <point x="768" y="1052" type="line"/>
      <point x="582" y="1052" type="line"/>
      <point x="582" y="272" type="line"/>
      <point x="562" y="208"/>
      <point x="479" y="142"/>
      <point x="430" y="142" type="qcurve" smooth="yes"/>
      <point x="383" y="142"/>
      <point x="324" y="206"/>
      <point x="324" y="291" type="qcurve" smooth="yes"/>
      <point x="324" y="1052" type="line"/>
      <point x="138" y="1052" type="line"/>
    </contour>
  </outline>
</glyph>
<glyph name="v" format="1">
  <advance width="556"/>
  <unicode hex="0076"/>
  <outline>
    <contour>
      <point x="0" y="1052" type="line"/>
      <point x="247" y="0" type="line"/>
      <point x="309" y="0" type="line"/>
      <point x="556" y="1052" type="line"/>
      <point x="506" y="1052" type="line"/>
      <point x="316" y="260" type="line" smooth="yes"/>
      <point x="308" y="220"/>
      <point x="290" y="140"/>
      <point x="282" y="100" type="qcurve"/>
      <point x="278" y="100" type="line"/>
      <point x="270" y="140"/>
      <point x="252" y="220"/>
      <point x="244" y="260" type="qcurve" smooth="yes"/>
      <point x="54" y="1052" type="line"/>
    </contour>
  </outline>
</glyph>
<glyph name="x" format="1">
  <advance width="578"/>
  <unicode hex="0078"/>
  <outline>
    <contour>
      <point x="20" y="0" type="line"/>
      <point x="57" y="0" type="line"/>
      <point x="287" y="514" type="line"/>
      <point x="300" y="514" type="line"/>
      <point x="543" y="1052" type="line"/>
      <point x="506" y="1052" type="line"/>
      <point x="281" y="552" type="line"/>
      <point x="268" y="552" type="line"/>
    </contour>
    <contour>
      <point x="35" y="1052" type="line"/>
      <point x="278" y="514" type="line"/>
      <point x="290" y="514" type="line"/>
      <point x="519" y="0" type="line"/>
      <point x="558" y="0" type="line"/>
      <point x="310" y="552" type="line"/>
      <point x="298" y="552" type="line"/>
      <point x="74" y="1052" type="line"/>
    </contour>
  </outline>
</glyph>
<glyph name="y" format="1">
  <advance width="706"/>
  <unicode hex="0079"/>
  <outline>
    <contour>
      <point x="145" y="-416" type="line"/>
      <point x="162" y="-425"/>
      <point x="196" y="-436"/>
      <point x="221" y="-436" type="qcurve" smooth="yes"/>
      <point x="293" y="-436"/>
      <point x="354.51684226981104" y="-276.35888111615634"/>
      <point x="389" y="-140" type="qcurve" smooth="yes"/>
      <point x="696" y="1052" type="line"/>
      <point x="646" y="1052" type="line"/>
      <point x="442" y="260" type="line" smooth="yes"/>
      <point x="433" y="220"/>
      <point x="416" y="140"/>
      <point x="408" y="100" type="qcurve"/>
      <point x="404" y="100" type="line"/>
      <point x="396" y="140"/>
      <point x="378" y="220"/>
      <point x="370" y="260" type="qcurve" smooth="yes"/>
      <point x="184" y="1052" type="line"/>
      <point x="130" y="1052" type="line"/>
      <point x="383" y="0" type="line"/>
      <point x="358" y="-100" type="line" smooth="yes"/>
      <point x="311.89023914185526" y="-256.45645959469925"/>
      <point x="272" y="-386"/>
      <point x="223" y="-386" type="qcurve" smooth="yes"/>
      <point x="206" y="-386"/>
      <point x="163" y="-374"/>
      <point x="145" y="-366" type="qcurve"/>
    </contour>
  </outline>
</glyph>
<glyph name="braceleft" format="1">
  <advance width="560"/>
  <unicode hex="007B"/>
  <outline>
    <contour>
      <point x="208" y="315" type="qcurve" smooth="yes"/>
      <point x="174" y="103" type="line" smooth="yes"/>
      <point x="153" y="-25"/>
      <point x="344" y="-312"/>
      <point x="538" y="-312" type="qcurve"/>
      <point x="538" y="-166" type="line"/>
      <point x="436" y="-166"/>
      <point x="339" y="-5"/>
      <point x="363" y="143" type="qcurve" smooth="yes"/>
      <point x="396" y="355" type="line" smooth="yes"/>
      <point x="406" y="413"/>
      <point x="355" y="554"/>
      <point x="284" y="579" type="qcurve"/>
      <point x="355" y="609"/>
      <point x="406" y="745"/>
      <point x="396" y="803" type="qcurve" smooth="yes"/>
      <point x="358" y="1035" type="line" smooth="yes"/>
      <point x="338" y="1152"/>
      <point x="436" y="1315"/>
      <point x="538" y="1315" type="qcurve"/>
      <point x="538" y="1460" type="line"/>
      <point x="344" y="1460"/>
      <point x="153" y="1173"/>
      <point x="174" y="1045" type="qcurve" smooth="yes"/>
      <point x="208" y="843" type="line" smooth="yes"/>
      <point x="230" y="711"/>
      <point x="150" y="645"/>
      <point x="64" y="645" type="qcurve"/>
      <point x="64" y="513" type="line"/>
      <point x="150" y="513"/>
      <point x="229" y="447"/>
    </contour>
  </outline>
</glyph>
<glyph name="exclamdown" format="1">
  <advance width="606"/>
  <unicode hex="00A1"/>
  <outline>
    <contour>
      <point x="215" y="766" type="line"/>
      <point x="206" y="-279" type="line"/>
      <point x="400" y="-279" type="line"/>
      <point x="391" y="766" type="line"/>
    </contour>
    <contour>
      <point x="189" y="1083" type="qcurve" smooth="yes"/>
      <point x="189" y="1049"/>
      <point x="239" y="965"/>
      <point x="303" y="965" type="qcurve" smooth="yes"/>
      <point x="365" y="965"/>
      <point x="417" y="1048"/>
      <point x="417" y="1082" type="qcurve" smooth="yes"/>
      <point x="417" y="1115"/>
      <point x="365" y="1199"/>
      <point x="303" y="1199" type="qcurve" smooth="yes"/>
      <point x="239" y="1199"/>
      <point x="189" y="1116"/>
    </contour>
  </outline>
</glyph>
<glyph name="cent" format="1">
  <advance width="558"/>
  <unicode hex="00A2"/>
  <outline>
    <contour>
      <point x="85" y="520" type="line" smooth="yes"/>
      <point x="85" y="285.5925925925926"/>
      <point x="210.67078189300412" y="-10.0"/>
      <point x="321" y="-10" type="qcurve" smooth="yes"/>
      <point x="420.0934579439253" y="-10.0"/>
      <point x="523" y="217"/>
      <point x="523" y="357" type="qcurve"/>
      <point x="523" y="362" type="line"/>
      <point x="469" y="362" type="line"/>
      <point x="469" y="357" type="line"/>
      <point x="469" y="232"/>
      <point x="397.758064516129" y="40.0"/>
      <point x="321" y="40" type="qcurve" smooth="yes"/>
      <point x="228.1351351351351" y="40.0"/>
      <point x="139" y="317.79896907216494"/>
      <point x="139" y="520" type="qcurve" smooth="yes"/>
      <point x="139" y="552" type="line" smooth="yes"/>
      <point x="139" y="754.2010309278351"/>
      <point x="228.1351351351351" y="1032.0"/>
      <point x="321" y="1032" type="qcurve" smooth="yes"/>
      <point x="397.758064516129" y="1032.0"/>
      <point x="469" y="840"/>
      <point x="469" y="715" type="qcurve" smooth="yes"/>
      <point x="469" y="710" type="line"/>
      <point x="523" y="710" type="line"/>
      <point x="523" y="715" type="line" smooth="yes"/>
      <point x="523" y="855"/>
      <point x="420.0934579439253" y="1082.0"/>
      <point x="321" y="1082" type="qcurve" smooth="yes"/>
      <point x="210.67078189300412" y="1082.0"/>
      <point x="85" y="786.4074074074074"/>
      <point x="85" y="552" type="qcurve" smooth="yes"/>
    </contour>
    <contour>
      <point x="292" y="-256" type="line"/>
      <point x="346" y="-256" type="line"/>
      <point x="346" y="24" type="line"/>
      <point x="347" y="30" type="line"/>
      <point x="347" y="541" type="line"/>
      <point x="291" y="541" type="line"/>
      <point x="291" y="30" type="line"/>
      <point x="292" y="24" type="line"/>
    </contour>
    <contour>
      <point x="291" y="541" type="line"/>
      <point x="347" y="541" type="line"/>
      <point x="347" y="1052" type="line"/>
      <point x="346" y="1058" type="line"/>
      <point x="346" y="1328" type="line"/>
      <point x="292" y="1328" type="line"/>
      <point x="292" y="1058" type="line"/>
      <point x="291" y="1052" type="line"/>
    </contour>
  </outline>
</glyph>
<glyph name="currency" format="1">
  <advance width="1142"/>
  <unicode hex="00A4"/>
  <outline>
    <contour>
      <point x="255" y="610" type="qcurve" smooth="yes"/>
      <point x="255.0" y="355.0"/>
      <point x="434.26956521739135" y="0.0"/>
      <point x="571" y="0" type="qcurve" smooth="yes"/>
      <point x="707.7304347826087" y="0.0"/>
      <point x="887.0" y="355.0"/>
      <point x="887" y="610" type="qcurve" smooth="yes"/>
      <point x="887.0" y="865.0"/>
      <point x="707.7304347826087" y="1220.0"/>
      <point x="571" y="1220" type="qcurve" smooth="yes"/>
      <point x="434.26956521739135" y="1220.0"/>
      <point x="255.0" y="865.0"/>
    </contour>
    <contour>
      <point x="309" y="610" type="qcurve" smooth="yes"/>
      <point x="309.0" y="846.3120567375886"/>
      <point x="456.0" y="1170.0"/>
      <point x="571" y="1170" type="qcurve" smooth="yes"/>
      <point x="686.0" y="1170.0"/>
      <point x="833.0" y="846.3120567375886"/>
      <point x="833" y="610" type="qcurve" smooth="yes"/>
      <point x="833.0" y="373.68794326241135"/>
      <point x="686.0" y="50.0"/>
      <point x="571" y="50" type="qcurve" smooth="yes"/>
      <point x="456.0" y="50.0"/>
      <point x="309.0" y="373.68794326241135"/>
    </contour>
    <contour>
      <point x="205" y="1210" type="line"/>
      <point x="354" y="1012" type="line"/>
      <point x="398" y="1038" type="line"/>
      <point x="249" y="1236" type="line"/>
    </contour>
    <contour>
      <point x="744" y="1038" type="line"/>
      <point x="788" y="1012" type="line"/>
      <point x="937" y="1210" type="line"/>
      <point x="893" y="1236" type="line"/>
    </contour>
    <contour>
      <point x="744" y="182" type="line"/>
      <point x="893" y="-16" type="line"/>
      <point x="937" y="10" type="line"/>
      <point x="788" y="208" type="line"/>
    </contour>
    <contour>
      <point x="205" y="10" type="line"/>
      <point x="249" y="-16" type="line"/>
      <point x="398" y="182" type="line"/>
      <point x="354" y="208" type="line"/>
    </contour>
  </outline>
</glyph>
<glyph name="section" format="1">
  <advance width="721.0"/>
  <unicode hex="00A7"/>
  <outline>
    <contour>
      <point x="120" y="556" type="qcurve" smooth="yes"/>
      <point x="120" y="434"/>
      <point x="240" y="304"/>
      <point x="345" y="253" type="qcurve" smooth="yes"/>
      <point x="471.5995650038192" y="196.65364264399437"/>
      <point x="544.0" y="29.0"/>
      <point x="544.0" y="-92.0" type="qcurve" smooth="yes"/>
      <point x="544.0" y="-229.0"/>
      <point x="435.7731092436975" y="-396.0"/>
      <point x="352.0" y="-396.0" type="qcurve" smooth="yes"/>
      <point x="267.8688524590164" y="-396.0"/>
      <point x="154.0" y="-226.0"/>
      <point x="154.0" y="-56.0" type="qcurve" smooth="yes"/>
      <point x="154.0" y="-44.0" type="line"/>
      <point x="100.0" y="-44.0" type="line"/>
      <point x="100.0" y="-56.0" type="line" smooth="yes"/>
      <point x="100.0" y="-236.0"/>
      <point x="238.0" y="-446.0"/>
      <point x="352.0" y="-446.0" type="qcurve" smooth="yes"/>
      <point x="465.0" y="-446.0"/>
      <point x="598.0" y="-247.0"/>
      <point x="598.0" y="-92.0" type="qcurve" smooth="yes"/>
      <point x="598.0" y="64.0"/>
      <point x="489.0" y="239.0"/>
      <point x="365.0" y="293.0" type="qcurve" smooth="yes"/>
      <point x="262.55175542300475" y="339.13812378222906"/>
      <point x="174.0" y="466.0"/>
      <point x="174.0" y="556.0" type="qcurve" smooth="yes"/>
      <point x="174.0" y="665.0"/>
      <point x="256.6388888888889" y="787.0"/>
      <point x="344" y="787" type="qcurve"/>
      <point x="315" y="830" type="line"/>
      <point x="221" y="810"/>
      <point x="120" y="669"/>
    </contour>
    <contour>
      <point x="143" y="1145" type="qcurve" smooth="yes"/>
      <point x="143" y="1007"/>
      <point x="244.0" y="830.0"/>
      <point x="369.0" y="777.0" type="qcurve" smooth="yes"/>
      <point x="474.6915736313823" y="730.6714269502087"/>
      <point x="567.0" y="595.0"/>
      <point x="567.0" y="497.0" type="qcurve" smooth="yes"/>
      <point x="567.0" y="387.0"/>
      <point x="467.7731092436975" y="253.0"/>
      <point x="375.0" y="253.0" type="qcurve"/>
      <point x="420" y="210" type="line"/>
      <point x="510" y="237"/>
      <point x="621.0" y="393.0"/>
      <point x="621.0" y="497.0" type="qcurve" smooth="yes"/>
      <point x="621.0" y="627.0"/>
      <point x="492.0" y="769.0"/>
      <point x="388.0" y="817.0" type="qcurve" smooth="yes"/>
      <point x="263.9324960627418" y="869.3102246438855"/>
      <point x="197.0" y="1033.0"/>
      <point x="197.0" y="1145.0" type="qcurve" smooth="yes"/>
      <point x="197.0" y="1283.0"/>
      <point x="288.125" y="1436.0"/>
      <point x="368.0" y="1436.0" type="qcurve" smooth="yes"/>
      <point x="448.10313901345296" y="1436.0"/>
      <point x="545.0" y="1252.0"/>
      <point x="545.0" y="1101.0" type="qcurve" smooth="yes"/>
      <point x="545.0" y="1090.0" type="line"/>
      <point x="599.0" y="1090.0" type="line"/>
      <point x="599.0" y="1101.0" type="line" smooth="yes"/>
      <point x="599.0" y="1262.0"/>
      <point x="482.0" y="1486.0"/>
      <point x="368.0" y="1486.0" type="qcurve" smooth="yes"/>
      <point x="253.0" y="1486.0"/>
      <point x="143" y="1291"/>
    </contour>
  </outline>
</glyph>
<glyph name="copyright" format="1">
  <advance width="1150"/>
  <unicode hex="00A9"/>
  <outline>
    <contour>
      <point x="94" y="698" type="qcurve" smooth="yes"/>
      <point x="94" y="364"/>
      <point x="379" y="-82"/>
      <point x="575" y="-82" type="qcurve" smooth="yes"/>
      <point x="771" y="-82"/>
      <point x="1056" y="364"/>
      <point x="1056" y="698" type="qcurve" smooth="yes"/>
      <point x="1056" y="1032"/>
      <point x="771" y="1478"/>
      <point x="575" y="1478" type="qcurve" smooth="yes"/>
      <point x="379" y="1478"/>
      <point x="94" y="1032"/>
    </contour>
    <contour>
      <point x="146" y="698" type="qcurve" smooth="yes"/>
      <point x="146" y="1002"/>
      <point x="391" y="1428"/>
      <point x="575" y="1428" type="qcurve" smooth="yes"/>
      <point x="758" y="1428"/>
      <point x="1004" y="1002"/>
      <point x="1004" y="698" type="qcurve" smooth="yes"/>
      <point x="1004" y="394"/>
      <point x="759" y="-32"/>
      <point x="575" y="-32" type="qcurve" smooth="yes"/>
      <point x="391" y="-32"/>
      <point x="146" y="394"/>
    </contour>
    <contour>
      <point x="383" y="668" type="line" smooth="yes"/>
      <point x="383" y="488.0"/>
      <point x="493.0" y="264.0"/>
      <point x="576" y="264" type="qcurve" smooth="yes"/>
      <point x="653.8783068783068" y="264.0"/>
      <point x="755" y="440"/>
      <point x="755" y="570" type="qcurve" smooth="yes"/>
      <point x="755" y="580" type="line"/>
      <point x="703" y="580" type="line"/>
      <point x="703" y="570" type="line" smooth="yes"/>
      <point x="703.0" y="446.6265060240964"/>
      <point x="635.6746987951807" y="314.0"/>
      <point x="576" y="314" type="qcurve" smooth="yes"/>
      <point x="509.3736263736264" y="314.0"/>
      <point x="435" y="507.0909090909091"/>
      <point x="435" y="668" type="qcurve" smooth="yes"/>
      <point x="435" y="748" type="line" smooth="yes"/>
      <point x="435" y="908.9090909090909"/>
      <point x="509.3736263736264" y="1102.0"/>
      <point x="576" y="1102" type="qcurve" smooth="yes"/>
      <point x="635.6746987951807" y="1102.0"/>
      <point x="703.0" y="969.3734939759036"/>
      <point x="703" y="846" type="qcurve" smooth="yes"/>
      <point x="703" y="836" type="line"/>
      <point x="755" y="836" type="line"/>
      <point x="755" y="846" type="line" smooth="yes"/>
      <point x="755" y="976"/>
      <point x="653.8783068783068" y="1152.0"/>
      <point x="576" y="1152" type="qcurve" smooth="yes"/>
      <point x="493.0" y="1152.0"/>
      <point x="383" y="928.0"/>
      <point x="383" y="748" type="qcurve" smooth="yes"/>
    </contour>
  </outline>
</glyph>
<glyph name="ordfeminine" format="1">
  <advance width="497"/>
  <unicode hex="00AA"/>
  <outline>
    <contour>
      <point x="66" y="850" type="qcurve" smooth="yes"/>
      <point x="66.0" y="734.0"/>
      <point x="133" y="611"/>
      <point x="181" y="611" type="qcurve" smooth="yes"/>
      <point x="239" y="611"/>
      <point x="306.6977251282682" y="705.204539811232"/>
      <point x="329" y="760" type="qcurve"/>
      <point x="333" y="724"/>
      <point x="344" y="649"/>
      <point x="353" y="627" type="qcurve"/>
      <point x="399" y="627" type="line"/>
      <point x="399" y="639" type="line"/>
      <point x="389" y="674"/>
      <point x="377" y="764"/>
      <point x="377" y="815" type="qcurve" smooth="yes"/>
      <point x="377" y="1192" type="line" smooth="yes"/>
      <point x="377" y="1333"/>
      <point x="304" y="1476"/>
      <point x="244" y="1476" type="qcurve" smooth="yes"/>
      <point x="184" y="1476"/>
      <point x="102" y="1333"/>
      <point x="102" y="1222" type="qcurve" smooth="yes"/>
      <point x="102" y="1216" type="line"/>
      <point x="152" y="1216" type="line"/>
      <point x="152" y="1222" type="line" smooth="yes"/>
      <point x="152" y="1305"/>
      <point x="196.76335877862596" y="1430.0"/>
      <point x="241" y="1430" type="qcurve" smooth="yes"/>
      <point x="284.03125" y="1430.0"/>
      <point x="327" y="1297.0"/>
      <point x="327" y="1192" type="qcurve" smooth="yes"/>
      <point x="327" y="1095" type="line"/>
      <point x="229" y="1095" type="line" smooth="yes"/>
      <point x="158" y="1095"/>
      <point x="66" y="967"/>
    </contour>
    <contour>
      <point x="116" y="858" type="qcurve" smooth="yes"/>
      <point x="116.0" y="946.0"/>
      <point x="178.87425149700601" y="1052"/>
      <point x="241" y="1052" type="qcurve" smooth="yes"/>
      <point x="327" y="1052" type="line"/>
      <point x="327" y="873" type="line"/>
      <point x="327.0" y="795.0"/>
      <point x="248" y="657"/>
      <point x="200" y="657" type="qcurve" smooth="yes"/>
      <point x="157" y="657"/>
      <point x="116.0" y="763.0"/>
    </contour>
  </outline>
</glyph>
<glyph name="guillemetleft" format="1">
  <advance width="614"/>
  <unicode hex="00AB"/>
  <outline>
    <contour>
      <point x="302" y="204" type="line"/>
      <point x="343" y="204" type="line"/>
      <point x="136" y="602" type="line"/>
      <point x="343" y="1000" type="line"/>
      <point x="302" y="1000" type="line"/>
      <point x="72" y="612" type="line"/>
      <point x="72" y="592" type="line"/>
    </contour>
    <contour>
      <point x="507" y="204" type="line"/>
      <point x="548" y="204" type="line"/>
      <point x="341" y="602" type="line"/>
      <point x="548" y="1000" type="line"/>
      <point x="507" y="1000" type="line"/>
      <point x="277" y="612" type="line"/>
      <point x="277" y="592" type="line"/>
    </contour>
  </outline>
</glyph>
<glyph name="macron" format="1">
  <advance width="877"/>
  <unicode hex="00AF"/>
  <outline>
    <contour>
      <point x="680" y="1330" type="line"/>
      <point x="197" y="1330" type="line"/>
      <point x="197" y="1175" type="line"/>
      <point x="680" y="1175" type="line"/>
    </contour>
  </outline>
</glyph>
<glyph name="degree" format="1">
  <advance width="742"/>
  <unicode hex="00B0"/>
  <outline>
    <contour>
      <point x="128" y="1151" type="qcurve" smooth="yes"/>
      <point x="128" y="1029"/>
      <point x="258" y="829"/>
      <point x="373" y="829" type="qcurve" smooth="yes"/>
      <point x="485" y="829"/>
      <point x="614" y="1029"/>
      <point x="614" y="1151" type="qcurve" smooth="yes"/>
      <point x="614" y="1276"/>
      <point x="485" y="1477"/>
      <point x="373" y="1477" type="qcurve" smooth="yes"/>
      <point x="258" y="1477"/>
      <point x="128" y="1276"/>
    </contour>
    <contour>
      <point x="293" y="1152" type="qcurve" smooth="yes"/>
      <point x="293" y="1239"/>
      <point x="348" y="1322"/>
      <point x="372" y="1322" type="qcurve" smooth="yes"/>
      <point x="395" y="1322"/>
      <point x="448" y="1239"/>
      <point x="448" y="1152" type="qcurve" smooth="yes"/>
      <point x="448" y="1065"/>
      <point x="395" y="984"/>
      <point x="372" y="984" type="qcurve" smooth="yes"/>
      <point x="348" y="984"/>
      <point x="293" y="1065"/>
    </contour>
  </outline>
</glyph>
<glyph name="plusminus" format="1">
  <advance width="1170"/>
  <unicode hex="00B1"/>
  <outline>
    <contour>
      <point x="311" y="650" type="line"/>
      <point x="859" y="650" type="line"/>
      <point x="859" y="700" type="line"/>
      <point x="311" y="700" type="line"/>
    </contour>
    <contour>
      <point x="558" y="353" type="line"/>
      <point x="612" y="353" type="line"/>
      <point x="612" y="979" type="line"/>
      <point x="558" y="979" type="line"/>
    </contour>
    <contour>
      <point x="311" y="123" type="line"/>
      <point x="859" y="123" type="line"/>
      <point x="859" y="173" type="line"/>
      <point x="311" y="173" type="line"/>
    </contour>
  </outline>
</glyph>
<glyph name="acute" format="1">
  <advance width="933"/>
  <unicode hex="00B4"/>
  <outline>
    <contour>
      <point x="466" y="1457" type="line"/>
      <point x="317" y="1146" type="line"/>
      <point x="317" y="1153" type="line"/>
      <point x="486" y="1153" type="line"/>
      <point x="663" y="1457" type="line"/>
    </contour>
  </outline>
</glyph>
<glyph name="paragraph" format="1">
  <advance width="825"/>
  <unicode hex="00B6"/>
  <outline>
    <contour>
      <point x="100" y="986" type="qcurve" smooth="yes"/>
      <point x="100" y="786"/>
      <point x="280" y="513"/>
      <point x="415" y="516" type="qcurve" smooth="yes"/>
      <point x="440" y="516" type="line"/>
      <point x="440" y="-200" type="line"/>
      <point x="495" y="-200" type="line"/>
      <point x="495" y="1406" type="line"/>
      <point x="595" y="1406" type="line"/>
      <point x="595" y="-200" type="line"/>
      <point x="650" y="-200" type="line"/>
      <point x="650" y="1406" type="line"/>
      <point x="750" y="1406" type="line"/>
      <point x="750" y="1456" type="line"/>
      <point x="415" y="1456" type="line" smooth="yes"/>
      <point x="280" y="1456"/>
      <point x="100" y="1186"/>
    </contour>
  </outline>
</glyph>
<glyph name="questiondown" format="1">
  <advance width="708"/>
  <unicode hex="00BF"/>
  <outline>
    <contour>
      <point x="201" y="26" type="qcurve" smooth="yes"/>
      <point x="201" y="-128"/>
      <point x="294" y="-300"/>
      <point x="374" y="-300" type="qcurve" smooth="yes"/>
      <point x="457" y="-300"/>
      <point x="552" y="-118"/>
      <point x="552" y="61" type="qcurve" smooth="yes"/>
      <point x="552" y="81" type="line"/>
      <point x="497" y="81" type="line"/>
      <point x="497" y="61" type="line" smooth="yes"/>
      <point x="497" y="-96"/>
      <point x="434" y="-250"/>
      <point x="374" y="-250" type="qcurve" smooth="yes"/>
      <point x="315" y="-250"/>
      <point x="256" y="-103"/>
      <point x="256" y="26" type="qcurve" smooth="yes"/>
      <point x="256" y="147"/>
      <point x="283" y="300"/>
      <point x="333" y="387" type="qcurve" smooth="yes"/>
      <point x="391" y="492"/>
      <point x="436" y="648"/>
      <point x="436" y="756" type="qcurve" smooth="yes"/>
      <point x="436" y="766" type="line"/>
      <point x="381" y="766" type="line"/>
      <point x="381" y="756" type="line" smooth="yes"/>
      <point x="381" y="680"/>
      <point x="357" y="518"/>
      <point x="310" y="432" type="qcurve" smooth="yes"/>
      <point x="248" y="332"/>
      <point x="201" y="172"/>
    </contour>
    <contour>
      <point x="354" y="1123" type="qcurve" smooth="yes"/>
      <point x="354" y="1092"/>
      <point x="381" y="1048"/>
      <point x="406" y="1048" type="qcurve" smooth="yes"/>
      <point x="431" y="1048"/>
      <point x="458" y="1092"/>
      <point x="458" y="1123" type="qcurve" smooth="yes"/>
      <point x="458" y="1154"/>
      <point x="431" y="1198"/>
      <point x="406" y="1198" type="qcurve" smooth="yes"/>
      <point x="381" y="1198"/>
      <point x="354" y="1154"/>
    </contour>
  </outline>
</glyph>
<glyph name="AE" format="1">
  <advance width="1789"/>
  <unicode hex="00C6"/>
  <outline>
    <contour>
      <point x="270" y="387" type="line"/>
      <point x="330" y="539" type="line"/>
      <point x="918" y="539" type="line"/>
      <point x="918" y="387" type="line"/>
    </contour>
    <contour>
      <point x="871" y="0" type="line"/>
      <point x="871" y="1331" type="line"/>
      <point x="117" y="0" type="line"/>
      <point x="-80" y="0" type="line"/>
      <point x="745" y="1456" type="line"/>
      <point x="1711" y="1456" type="line"/>
      <point x="1711" y="1298" type="line"/>
      <point x="1059" y="1298" type="line"/>
      <point x="1059" y="830" type="line"/>
      <point x="1619" y="830" type="line"/>
      <point x="1619" y="673" type="line"/>
      <point x="1059" y="673" type="line"/>
      <point x="1059" y="157" type="line"/>
      <point x="1721" y="157" type="line"/>
      <point x="1721" y="0" type="line"/>
    </contour>
  </outline>
</glyph>
<glyph name="Eth" format="1">
  <advance width="1040"/>
  <unicode hex="00D0"/>
  <outline>
    <contour>
      <point x="129" y="0" type="line"/>
      <point x="440" y="0" type="line" smooth="yes"/>
      <point x="666" y="0"/>
      <point x="925" y="384"/>
      <point x="925" y="684" type="qcurve" smooth="yes"/>
      <point x="925" y="771" type="line" smooth="yes"/>
      <point x="925" y="1071"/>
      <point x="668" y="1456"/>
      <point x="452" y="1456" type="qcurve" smooth="yes"/>
      <point x="129" y="1456" type="line"/>
    </contour>
    <contour>
      <point x="323" y="157" type="line"/>
      <point x="323" y="1298" type="line"/>
      <point x="452" y="1298" type="line" smooth="yes"/>
      <point x="574" y="1298"/>
      <point x="731" y="1037"/>
      <point x="731" y="773" type="qcurve" smooth="yes"/>
      <point x="731" y="684" type="line" smooth="yes"/>
      <point x="731" y="431"/>
      <point x="574" y="157"/>
      <point x="440" y="157" type="qcurve" smooth="yes"/>
    </contour>
    <contour>
      <point x="42" y="804" type="line"/>
      <point x="42" y="654" type="line"/>
      <point x="549" y="654" type="line"/>
      <point x="549" y="804" type="line"/>
    </contour>
  </outline>
</glyph>
<glyph name="germandbls" format="1">
  <advance width="701"/>
  <unicode hex="00DF"/>
  <outline>
    <contour>
      <point x="140" y="0" type="line"/>
      <point x="194" y="0" type="line"/>
      <point x="194" y="1110" type="line" smooth="yes"/>
      <point x="194" y="1312.0"/>
      <point x="254.5625" y="1506.0"/>
      <point x="308" y="1506" type="qcurve" smooth="yes"/>
      <point x="360.3972602739726" y="1506.0"/>
      <point x="410.0" y="1344.0"/>
      <point x="410" y="1230" type="qcurve" smooth="yes"/>
      <point x="410" y="1168"/>
      <point x="385" y="1070"/>
      <point x="365" y="1029" type="qcurve" smooth="yes"/>
      <point x="344" y="984"/>
      <point x="306" y="888"/>
      <point x="306" y="822" type="qcurve" smooth="yes"/>
      <point x="306" y="730"/>
      <point x="376" y="603"/>
      <point x="420" y="553" type="qcurve" smooth="yes"/>
      <point x="478" y="490"/>
      <point x="568" y="358"/>
      <point x="568" y="268" type="qcurve" smooth="yes"/>
      <point x="568.0" y="164.0"/>
      <point x="506.909090909091" y="30.0"/>
      <point x="448" y="30" type="qcurve" smooth="yes"/>
      <point x="396.1428571428572" y="30.0"/>
      <point x="307.35915214855174" y="80.61521393739031"/>
      <point x="283" y="104" type="qcurve"/>
      <point x="268" y="60" type="line"/>
      <point x="295.3494798379631" y="32.6505201620369"/>
      <point x="394.2894736842105" y="-20.0"/>
      <point x="456" y="-20" type="qcurve" smooth="yes"/>
      <point x="526.2456140350877" y="-20.0"/>
      <point x="621.0" y="130.0"/>
      <point x="621" y="276" type="qcurve" smooth="yes"/>
      <point x="621" y="390"/>
      <point x="505" y="544"/>
      <point x="449" y="607" type="qcurve" smooth="yes"/>
      <point x="409" y="651"/>
      <point x="358" y="753"/>
      <point x="358" y="820" type="qcurve" smooth="yes"/>
      <point x="358" y="869"/>
      <point x="383" y="943"/>
      <point x="401" y="980" type="qcurve" smooth="yes"/>
      <point x="423" y="1027"/>
      <point x="465" y="1144"/>
      <point x="465" y="1240" type="qcurve" smooth="yes"/>
      <point x="465" y="1372"/>
      <point x="386" y="1556"/>
      <point x="308" y="1556" type="qcurve" smooth="yes"/>
      <point x="231" y="1556"/>
      <point x="140" y="1330"/>
      <point x="140" y="1110" type="qcurve" smooth="yes"/>
    </contour>
  </outline>
</glyph>
<glyph name="ae" format="1">
  <advance width="937"/>
  <unicode hex="00E6"/>
  <outline>
    <contour>
      <point x="90" y="280" type="qcurve" smooth="yes"/>
      <point x="90" y="130"/>
      <point x="170" y="-20"/>
      <point x="248" y="-20" type="qcurve" smooth="yes"/>
      <point x="314" y="-20"/>
      <point x="437" y="107"/>
      <point x="473" y="217" type="qcurve"/>
      <point x="499" y="102"/>
      <point x="609" y="-30"/>
      <point x="690" y="-30" type="qcurve" smooth="yes"/>
      <point x="759" y="-30"/>
      <point x="851" y="58"/>
      <point x="880" y="120" type="qcurve"/>
      <point x="832" y="155" type="line"/>
      <point x="799" y="90"/>
      <point x="736" y="20"/>
      <point x="690" y="20" type="qcurve" smooth="yes"/>
      <point x="588" y="20"/>
      <point x="491" y="302"/>
      <point x="491" y="510" type="qcurve" smooth="yes"/>
      <point x="491" y="542" type="line" smooth="yes"/>
      <point x="491" y="750"/>
      <point x="587" y="1032"/>
      <point x="680" y="1032" type="qcurve" smooth="yes"/>
      <point x="758" y="1032"/>
      <point x="824" y="770"/>
      <point x="824" y="600" type="qcurve"/>
      <point x="824" y="582" type="line"/>
      <point x="462" y="582" type="line"/>
      <point x="462" y="534" type="line"/>
      <point x="873" y="534" type="line"/>
      <point x="873" y="560" type="line" smooth="yes"/>
      <point x="873" y="800"/>
      <point x="773" y="1082"/>
      <point x="680" y="1082" type="qcurve" smooth="yes"/>
      <point x="614" y="1082"/>
      <point x="512" y="971"/>
      <point x="480" y="860" type="qcurve"/>
      <point x="464" y="978"/>
      <point x="374" y="1082"/>
      <point x="306" y="1082" type="qcurve" smooth="yes"/>
      <point x="221" y="1082"/>
      <point x="139" y="900"/>
      <point x="139" y="770" type="qcurve" smooth="yes"/>
      <point x="139" y="765" type="line"/>
      <point x="189" y="765" type="line"/>
      <point x="189" y="770" type="line" smooth="yes"/>
      <point x="189" y="874"/>
      <point x="241" y="1032"/>
      <point x="303" y="1032" type="qcurve" smooth="yes"/>
      <point x="376" y="1032"/>
      <point x="437" y="860"/>
      <point x="437" y="720" type="qcurve" smooth="yes"/>
      <point x="437" y="598" type="line"/>
      <point x="285" y="598" type="line" smooth="yes"/>
      <point x="199" y="598"/>
      <point x="90" y="425"/>
    </contour>
    <contour>
      <point x="144" y="280" type="qcurve" smooth="yes"/>
      <point x="144" y="400"/>
      <point x="223" y="548"/>
      <point x="300" y="548" type="qcurve" smooth="yes"/>
      <point x="437" y="548" type="line"/>
      <point x="437" y="330" type="line"/>
      <point x="437" y="220"/>
      <point x="320" y="30"/>
      <point x="248" y="30" type="qcurve" smooth="yes"/>
      <point x="194" y="30"/>
      <point x="144" y="160"/>
    </contour>
  </outline>
</glyph>
<glyph name="eth" format="1">
  <advance width="866"/>
  <unicode hex="00F0"/>
  <outline>
    <contour>
      <point x="788" y="1426" type="line"/>
      <point x="716" y="1585" type="line"/>
      <point x="333" y="1192" type="line"/>
      <point x="404" y="1030" type="line"/>
    </contour>
    <contour>
      <point x="596" y="635" type="line"/>
      <point x="596" y="535" type="line" smooth="yes"/>
      <point x="596" y="344"/>
      <point x="505" y="132"/>
      <point x="446" y="132" type="qcurve" smooth="yes"/>
      <point x="378" y="132"/>
      <point x="286" y="327"/>
      <point x="286" y="468" type="qcurve" smooth="yes"/>
      <point x="286" y="649"/>
      <point x="382" y="826"/>
      <point x="454" y="826" type="qcurve" smooth="yes"/>
      <point x="515" y="826"/>
      <point x="597" y="688"/>
      <point x="601" y="544" type="qcurve"/>
      <point x="723" y="620" type="line"/>
      <point x="723" y="733"/>
      <point x="560" y="978"/>
      <point x="425" y="978" type="qcurve" smooth="yes"/>
      <point x="274" y="978"/>
      <point x="96" y="682"/>
      <point x="96" y="468" type="qcurve" smooth="yes"/>
      <point x="96" y="281"/>
      <point x="281" y="-20"/>
      <point x="444" y="-20" type="qcurve" smooth="yes"/>
      <point x="618" y="-20"/>
      <point x="786" y="330"/>
      <point x="786" y="684" type="qcurve" smooth="yes"/>
      <point x="786" y="867" type="line" smooth="yes"/>
      <point x="786" y="1148"/>
      <point x="622" y="1557"/>
      <point x="451" y="1557" type="qcurve" smooth="yes"/>
      <point x="323" y="1557"/>
      <point x="174" y="1445"/>
      <point x="139" y="1376" type="qcurve"/>
      <point x="229" y="1182" type="line"/>
      <point x="281" y="1294"/>
      <point x="386" y="1405"/>
      <point x="440" y="1405" type="qcurve" smooth="yes"/>
      <point x="490" y="1405"/>
      <point x="596" y="1184"/>
      <point x="596" y="954" type="qcurve" smooth="yes"/>
    </contour>
  </outline>
</glyph>
<glyph name="oslash" format="1">
  <advance width="642"/>
  <unicode hex="00F8"/>
  <outline>
    <contour>
      <point x="85" y="510" type="line" smooth="yes"/>
      <point x="85" y="272"/>
      <point x="213" y="-30"/>
      <point x="321" y="-30" type="qcurve" smooth="yes"/>
      <point x="428" y="-30"/>
      <point x="557" y="272"/>
      <point x="557" y="510" type="qcurve" smooth="yes"/>
      <point x="557" y="542" type="line" smooth="yes"/>
      <point x="557" y="780"/>
      <point x="428" y="1082"/>
      <point x="321" y="1082" type="qcurve" smooth="yes"/>
      <point x="213" y="1082"/>
      <point x="85" y="780"/>
      <point x="85" y="542" type="qcurve" smooth="yes"/>
    </contour>
    <contour>
      <point x="91" y="542" type="line" smooth="yes"/>
      <point x="91" y="748"/>
      <point x="209" y="1032"/>
      <point x="321" y="1032" type="qcurve" smooth="yes"/>
      <point x="433" y="1032"/>
      <point x="550" y="748"/>
      <point x="550" y="542" type="qcurve" smooth="yes"/>
      <point x="550" y="510" type="line" smooth="yes"/>
      <point x="550" y="304"/>
      <point x="433" y="20"/>
      <point x="321" y="20" type="qcurve" smooth="yes"/>
      <point x="209" y="20"/>
      <point x="91" y="304"/>
      <point x="91" y="510" type="qcurve" smooth="yes"/>
    </contour>
    <contour>
      <point x="48" y="-120" type="line"/>
      <point x="93" y="-120" type="line"/>
      <point x="163" y="68" type="line"/>
      <point x="164" y="68" type="line"/>
      <point x="342" y="526" type="line"/>
      <point x="298" y="526" type="line"/>
      <point x="153" y="150" type="line"/>
      <point x="154" y="150" type="line"/>
    </contour>
    <contour>
      <point x="298" y="526" type="line"/>
      <point x="342" y="526" type="line"/>
      <point x="487" y="902" type="line"/>
      <point x="487" y="902" type="line"/>
      <point x="594" y="1172" type="line"/>
      <point x="549" y="1172" type="line"/>
      <point x="475" y="984" type="line"/>
      <point x="475" y="984" type="line"/>
    </contour>
  </outline>
</glyph>
<glyph name="OE" format="1">
  <advance width="1424"/>
  <unicode hex="0152"/>
  <outline>
    <contour>
      <point x="718" y="0" type="line"/>
      <point x="1356" y="0" type="line"/>
      <point x="1356" y="157" type="line"/>
      <point x="910" y="157" type="line"/>
      <point x="910" y="673" type="line"/>
      <point x="1288" y="673" type="line"/>
      <point x="1288" y="830" type="line"/>
      <point x="910" y="830" type="line"/>
      <point x="910" y="1298" type="line"/>
      <point x="1350" y="1298" type="line"/>
      <point x="1350" y="1456" type="line"/>
      <point x="718" y="1456" type="line"/>
    </contour>
    <contour>
      <point x="115" y="682" type="line" smooth="yes"/>
      <point x="115" y="374"/>
      <point x="352" y="-20"/>
      <point x="537" y="-20" type="qcurve" smooth="yes"/>
      <point x="645" y="-20"/>
      <point x="756" y="49"/>
      <point x="808" y="133" type="qcurve"/>
      <point x="808" y="388" type="line"/>
      <point x="715" y="219"/>
      <point x="611" y="143"/>
      <point x="549" y="143" type="qcurve" smooth="yes"/>
      <point x="463" y="143"/>
      <point x="312" y="408"/>
      <point x="312" y="682" type="qcurve" smooth="yes"/>
      <point x="312" y="776" type="line" smooth="yes"/>
      <point x="312" y="1050"/>
      <point x="461" y="1322"/>
      <point x="563" y="1322" type="qcurve" smooth="yes"/>
      <point x="611" y="1322"/>
      <point x="717" y="1240"/>
      <point x="812" y="1036" type="qcurve"/>
      <point x="812" y="1369" type="line"/>
      <point x="761" y="1423"/>
      <point x="645" y="1486"/>
      <point x="563" y="1486" type="qcurve" smooth="yes"/>
      <point x="361" y="1486"/>
      <point x="115" y="1084"/>
      <point x="115" y="774" type="qcurve" smooth="yes"/>
    </contour>
  </outline>
</glyph>
<glyph name="oe" format="1">
  <advance width="1011"/>
  <unicode hex="0153"/>
  <outline>
    <contour>
      <point x="85" y="510" type="line" smooth="yes"/>
      <point x="85" y="272"/>
      <point x="217" y="-30"/>
      <point x="327" y="-30" type="qcurve" smooth="yes"/>
      <point x="408" y="-30"/>
      <point x="524" y="120"/>
      <point x="541" y="249" type="qcurve"/>
      <point x="558" y="119"/>
      <point x="684" y="-30"/>
      <point x="779" y="-30" type="qcurve" smooth="yes"/>
      <point x="840" y="-30"/>
      <point x="919" y="60"/>
      <point x="947" y="120" type="qcurve"/>
      <point x="900" y="155" type="line"/>
      <point x="868" y="92"/>
      <point x="819" y="20"/>
      <point x="779" y="20" type="qcurve" smooth="yes"/>
      <point x="671" y="20"/>
      <point x="568" y="302"/>
      <point x="568" y="510" type="qcurve" smooth="yes"/>
      <point x="568" y="542" type="line" smooth="yes"/>
      <point x="568" y="750"/>
      <point x="664" y="1032"/>
      <point x="756" y="1032" type="qcurve" smooth="yes"/>
      <point x="836" y="1032"/>
      <point x="902" y="770"/>
      <point x="902" y="600" type="qcurve"/>
      <point x="902" y="582" type="line"/>
      <point x="539" y="582" type="line"/>
      <point x="539" y="534" type="line"/>
      <point x="951" y="534" type="line"/>
      <point x="951" y="560" type="line" smooth="yes"/>
      <point x="951" y="800"/>
      <point x="850" y="1082"/>
      <point x="756" y="1082" type="qcurve" smooth="yes"/>
      <point x="676" y="1082"/>
      <point x="557" y="933"/>
      <point x="540" y="803" type="qcurve"/>
      <point x="523" y="932"/>
      <point x="408" y="1082"/>
      <point x="327" y="1082" type="qcurve" smooth="yes"/>
      <point x="217" y="1082"/>
      <point x="85" y="780"/>
      <point x="85" y="542" type="qcurve" smooth="yes"/>
    </contour>
    <contour>
      <point x="139" y="510" type="qcurve" smooth="yes"/>
      <point x="139" y="542" type="line" smooth="yes"/>
      <point x="139" y="748"/>
      <point x="236" y="1032"/>
      <point x="327" y="1032" type="qcurve" smooth="yes"/>
      <point x="418" y="1032"/>
      <point x="514" y="748"/>
      <point x="514" y="542" type="qcurve" smooth="yes"/>
      <point x="514" y="510" type="line" smooth="yes"/>
      <point x="514" y="304"/>
      <point x="418" y="20"/>
      <point x="327" y="20" type="qcurve" smooth="yes"/>
      <point x="236" y="20"/>
      <point x="139" y="304"/>
    </contour>
  </outline>
</glyph>
<glyph name="circumflex" format="1">
  <advance width="872"/>
  <unicode hex="02C6"/>
  <outline>
    <contour>
      <point x="510" y="1456" type="line"/>
      <point x="361" y="1456" type="line"/>
      <point x="190" y="1147" type="line"/>
      <point x="190" y="1153" type="line"/>
      <point x="354" y="1153" type="line"/>
      <point x="435" y="1283" type="line"/>
      <point x="516" y="1153" type="line"/>
      <point x="682" y="1153" type="line"/>
      <point x="682" y="1146" type="line"/>
    </contour>
  </outline>
</glyph>
<glyph name="ring" format="1">
  <advance width="928"/>
  <unicode hex="02DA"/>
  <outline>
    <contour>
      <point x="272" y="1359" type="qcurve" smooth="yes"/>
      <point x="272" y="1275"/>
      <point x="374" y="1132"/>
      <point x="464" y="1132" type="qcurve" smooth="yes"/>
      <point x="554" y="1132"/>
      <point x="656" y="1275"/>
      <point x="656" y="1359" type="qcurve" smooth="yes"/>
      <point x="656" y="1439"/>
      <point x="554" y="1590"/>
      <point x="464" y="1590" type="qcurve" smooth="yes"/>
      <point x="374" y="1590"/>
      <point x="272" y="1439"/>
    </contour>
    <contour>
      <point x="421" y="1359" type="qcurve" smooth="yes"/>
      <point x="421" y="1421"/>
      <point x="454" y="1477"/>
      <point x="464" y="1477" type="qcurve" smooth="yes"/>
      <point x="473" y="1477"/>
      <point x="507" y="1421"/>
      <point x="507" y="1359" type="qcurve" smooth="yes"/>
      <point x="507" y="1297"/>
      <point x="474" y="1244"/>
      <point x="464" y="1244" type="qcurve" smooth="yes"/>
      <point x="454" y="1244"/>
      <point x="421" y="1299"/>
    </contour>
  </outline>
</glyph>
<glyph name="tilde" format="1">
  <advance width="848"/>
  <unicode hex="02DC"/>
  <outline>
    <contour>
      <point x="234" y="1150" type="qcurve"/>
      <point x="284" y="1148" type="line"/>
      <point x="284.0" y="1235.7373737373737"/>
      <point x="301.0" y="1350.0"/>
      <point x="323" y="1350" type="qcurve" smooth="yes"/>
      <point x="345.0" y="1350.0"/>
      <point x="473.0" y="1160.0"/>
      <point x="522" y="1160" type="qcurve" smooth="yes"/>
      <point x="578" y="1160"/>
      <point x="616" y="1287"/>
      <point x="616" y="1410" type="qcurve"/>
      <point x="566" y="1412" type="line"/>
      <point x="566.0" y="1323.8545454545456"/>
      <point x="549.0" y="1210.0"/>
      <point x="527" y="1210" type="qcurve" smooth="yes"/>
      <point x="505.0" y="1210.0"/>
      <point x="377" y="1400"/>
      <point x="328" y="1400" type="qcurve" smooth="yes"/>
      <point x="272" y="1400"/>
      <point x="234" y="1273"/>
    </contour>
  </outline>
</glyph>
<glyph name="emdash" format="1">
  <advance width="1177"/>
  <unicode hex="2014"/>
  <outline>
    <contour>
      <point x="80" y="538" type="line"/>
      <point x="1097" y="538" type="line"/>
      <point x="1097" y="710" type="line"/>
      <point x="80" y="710" type="line"/>
    </contour>
  </outline>
</glyph>
<glyph name="quoteright" format="1">
  <advance width="388"/>
  <unicode hex="2019"/>
  <outline>
    <contour>
      <point x="95" y="1048" type="qcurve"/>
      <point x="199" y="948" type="line"/>
      <point x="280" y="1048"/>
      <point x="344" y="1268"/>
      <point x="344" y="1335" type="qcurve" smooth="yes"/>
      <point x="344" y="1456" type="line"/>
      <point x="157" y="1456" type="line"/>
      <point x="157" y="1332" type="line" smooth="yes"/>
      <point x="157" y="1228"/>
      <point x="120" y="1101"/>
    </contour>
  </outline>
</glyph>
<glyph name="quotesinglbase" format="1">
  <advance width="388"/>
  <unicode hex="201A"/>
  <outline>
    <contour>
      <point x="95" y="-188" type="qcurve"/>
      <point x="199" y="-288" type="line"/>
      <point x="280" y="-188"/>
      <point x="344" y="32"/>
      <point x="344" y="99" type="qcurve" smooth="yes"/>
      <point x="344" y="220" type="line"/>
      <point x="157" y="220" type="line"/>
      <point x="157" y="96" type="line" smooth="yes"/>
      <point x="157" y="-8"/>
      <point x="120" y="-135"/>
    </contour>
  </outline>
</glyph>
<glyph name="quotedblright" format="1">
  <advance width="652"/>
  <unicode hex="201D"/>
  <outline>
    <contour>
      <point x="95" y="1048" type="qcurve"/>
      <point x="199" y="948" type="line"/>
      <point x="280" y="1048"/>
      <point x="344" y="1268"/>
      <point x="344" y="1335" type="qcurve" smooth="yes"/>
      <point x="344" y="1456" type="line"/>
      <point x="157" y="1456" type="line"/>
      <point x="157" y="1332" type="line" smooth="yes"/>
      <point x="157" y="1228"/>
      <point x="120" y="1101"/>
    </contour>
    <contour>
      <point x="359" y="1048" type="qcurve"/>
      <point x="463" y="948" type="line"/>
      <point x="544" y="1048"/>
      <point x="608" y="1268"/>
      <point x="608" y="1335" type="qcurve" smooth="yes"/>
      <point x="608" y="1456" type="line"/>
      <point x="421" y="1456" type="line"/>
      <point x="421" y="1332" type="line" smooth="yes"/>
      <point x="421" y="1228"/>
      <point x="384" y="1101"/>
    </contour>
  </outline>
</glyph>
<glyph name="quotedblbase" format="1">
  <advance width="652"/>
  <unicode hex="201E"/>
  <outline>
    <contour>
      <point x="95" y="-188" type="qcurve"/>
      <point x="199" y="-288" type="line"/>
      <point x="280" y="-188"/>
      <point x="344" y="32"/>
      <point x="344" y="99" type="qcurve" smooth="yes"/>
      <point x="344" y="220" type="line"/>
      <point x="157" y="220" type="line"/>
      <point x="157" y="96" type="line" smooth="yes"/>
      <point x="157" y="-8"/>
      <point x="120" y="-135"/>
    </contour>
    <contour>
      <point x="359" y="-188" type="qcurve"/>
      <point x="463" y="-288" type="line"/>
      <point x="544" y="-188"/>
      <point x="608" y="32"/>
      <point x="608" y="99" type="qcurve" smooth="yes"/>
      <point x="608" y="220" type="line"/>
      <point x="421" y="220" type="line"/>
      <point x="421" y="96" type="line" smooth="yes"/>
      <point x="421" y="-8"/>
      <point x="384" y="-135"/>
    </contour>
  </outline>
</glyph>
<glyph name="dagger" format="1">
  <advance width="873"/>
  <unicode hex="2020"/>
  <outline>
    <contour>
      <point x="803" y="1125" type="line"/>
      <point x="435" y="1103" type="line"/>
      <point x="70" y="1125" type="line"/>
      <point x="70" y="926" type="line"/>
      <point x="436" y="948" type="line"/>
      <point x="803" y="926" type="line"/>
    </contour>
    <contour>
      <point x="498" y="-224" type="line"/>
      <point x="531" y="525" type="line"/>
      <point x="511" y="1026" type="line"/>
      <point x="538" y="1516" type="line"/>
      <point x="334" y="1516" type="line"/>
      <point x="361" y="1026" type="line"/>
      <point x="341" y="525" type="line"/>
      <point x="374" y="-228" type="line"/>
    </contour>
  </outline>
</glyph>
<glyph name="bullet" format="1">
  <advance width="677"/>
  <unicode hex="2022"/>
  <outline>
    <contour>
      <point x="164" y="732" type="line" smooth="yes"/>
      <point x="164" y="661"/>
      <point x="253" y="536"/>
      <point x="338" y="536" type="qcurve" smooth="yes"/>
      <point x="424" y="536"/>
      <point x="513" y="661"/>
      <point x="513" y="732" type="qcurve" smooth="yes"/>
      <point x="513" y="773" type="line" smooth="yes"/>
      <point x="513" y="844"/>
      <point x="424" y="971"/>
      <point x="338" y="971" type="qcurve" smooth="yes"/>
      <point x="253" y="971"/>
      <point x="164" y="845"/>
      <point x="164" y="773" type="qcurve" smooth="yes"/>
    </contour>
  </outline>
</glyph>
<glyph name="ellipsis" format="1">
  <advance width="1325"/>
  <unicode hex="2026"/>
  <outline>
    <contour>
      <point x="543" y="101" type="qcurve" smooth="yes"/>
      <point x="543" y="66"/>
      <point x="597" y="-22"/>
      <point x="662" y="-22" type="qcurve" smooth="yes"/>
      <point x="728" y="-22"/>
      <point x="781" y="66"/>
      <point x="781" y="101" type="qcurve" smooth="yes"/>
      <point x="781" y="137"/>
      <point x="728" y="225"/>
      <point x="662" y="225" type="qcurve" smooth="yes"/>
      <point x="597" y="225"/>
      <point x="543" y="137"/>
    </contour>
    <contour>
      <point x="926" y="101" type="qcurve" smooth="yes"/>
      <point x="926" y="66"/>
      <point x="979" y="-22"/>
      <point x="1045" y="-22" type="qcurve" smooth="yes"/>
      <point x="1111" y="-22"/>
      <point x="1164" y="66"/>
      <point x="1164" y="101" type="qcurve" smooth="yes"/>
      <point x="1164" y="137"/>
      <point x="1111" y="225"/>
      <point x="1045" y="225" type="qcurve" smooth="yes"/>
      <point x="979" y="225"/>
      <point x="926" y="137"/>
    </contour>
    <contour>
      <point x="161" y="101" type="qcurve" smooth="yes"/>
      <point x="161" y="66"/>
      <point x="214" y="-22"/>
      <point x="279" y="-22" type="qcurve" smooth="yes"/>
      <point x="345" y="-22"/>
      <point x="398" y="66"/>
      <point x="398" y="101" type="qcurve" smooth="yes"/>
      <point x="398" y="137"/>
      <point x="345" y="225"/>
      <point x="279" y="225" type="qcurve" smooth="yes"/>
      <point x="214" y="225"/>
      <point x="161" y="137"/>
    </contour>
  </outline>
</glyph>
<glyph name="guilsinglright" format="1">
  <advance width="537"/>
  <unicode hex="203A"/>
  <outline>
    <contour>
      <point x="60" y="999" type="line"/>
      <point x="256" y="601" type="line"/>
      <point x="60" y="203" type="line"/>
      <point x="222" y="203" type="line"/>
      <point x="459" y="607" type="line"/>
      <point x="459" y="594" type="line"/>
      <point x="222" y="999" type="line"/>
    </contour>
  </outline>
</glyph>
<glyph name="fraction" format="1">
  <advance width="677"/>
  <unicode hex="2044"/>
  <outline>
    <contour>
      <point x="30" y="202" type="line"/>
      <point x="155" y="79" type="line"/>
      <point x="647" y="1247" type="line"/>
      <point x="522" y="1370" type="line"/>
    </contour>
  </outline>
</glyph>
<glyph name="won" format="1">
  <advance width="1422"/>
  <unicode hex="20A9"/>
  <outline>
    <contour>
      <point x="257" y="-10" type="line"/>
      <point x="389" y="-10" type="line"/>
      <point x="508" y="470" type="line" smooth="yes"/>
      <point x="517" y="502"/>
      <point x="530" y="565"/>
      <point x="535" y="598" type="qcurve"/>
      <point x="538" y="598" type="line"/>
      <point x="542" y="565"/>
      <point x="556" y="502"/>
      <point x="564" y="470" type="qcurve" smooth="yes"/>
      <point x="683" y="-10" type="line"/>
      <point x="820" y="-10" type="line"/>
      <point x="1004" y="1456" type="line"/>
      <point x="881" y="1456" type="line"/>
      <point x="748" y="318" type="line" smooth="yes"/>
      <point x="744" y="284"/>
      <point x="739" y="223"/>
      <point x="738" y="190" type="qcurve"/>
      <point x="735" y="190" type="line"/>
      <point x="731" y="223"/>
      <point x="721" y="285"/>
      <point x="713" y="318" type="qcurve" smooth="yes"/>
      <point x="604" y="756" type="line"/>
      <point x="477" y="756" type="line"/>
      <point x="368" y="318" type="line" smooth="yes"/>
      <point x="360" y="285"/>
      <point x="350" y="223"/>
      <point x="346" y="190" type="qcurve"/>
      <point x="343" y="190" type="line"/>
      <point x="343" y="223"/>
      <point x="337" y="284"/>
      <point x="334" y="318" type="qcurve" smooth="yes"/>
      <point x="200" y="1456" type="line"/>
      <point x="73" y="1456" type="line"/>
    </contour>
    <contour>
      <point x="28" y="840" type="line"/>
      <point x="1049" y="840" type="line"/>
      <point x="1049" y="996" type="line"/>
      <point x="28" y="996" type="line"/>
    </contour>
    <contour>
      <point x="20" y="1160" type="line"/>
      <point x="1057" y="1160" type="line"/>
      <point x="1057" y="1316" type="line"/>
      <point x="20" y="1316" type="line"/>
    </contour>
  </outline>
</glyph>
<glyph name="Euro" format="1">
  <advance width="863"/>
  <unicode hex="20AC"/>
  <outline>
    <contour>
      <point x="673" y="947" type="line"/>
      <point x="25" y="947" type="line"/>
      <point x="25" y="797" type="line"/>
      <point x="673" y="797" type="line"/>
    </contour>
    <contour>
      <point x="673" y="626" type="line"/>
      <point x="25" y="626" type="line"/>
      <point x="25" y="477" type="line"/>
      <point x="673" y="477" type="line"/>
    </contour>
    <contour>
      <point x="510" y="-20" type="qcurve" smooth="yes"/>
      <point x="682" y="-20"/>
      <point x="832" y="235"/>
      <point x="832" y="378" type="qcurve" smooth="yes"/>
      <point x="832" y="393" type="line"/>
      <point x="646" y="393" type="line"/>
      <point x="647" y="376" type="line" smooth="yes"/>
      <point x="652" y="256"/>
      <point x="572" y="139"/>
      <point x="506" y="139" type="qcurve" smooth="yes"/>
      <point x="411" y="139"/>
      <point x="313" y="329"/>
      <point x="313" y="560" type="qcurve" smooth="yes"/>
      <point x="313" y="874" type="line" smooth="yes"/>
      <point x="313" y="1106"/>
      <point x="411" y="1298"/>
      <point x="495" y="1298" type="qcurve" smooth="yes"/>
      <point x="572" y="1298"/>
      <point x="638" y="1184"/>
      <point x="638" y="1057" type="qcurve" smooth="yes"/>
      <point x="638" y="1043" type="line"/>
      <point x="825" y="1043" type="line"/>
      <point x="825" y="1058" type="line" smooth="yes"/>
      <point x="825" y="1200"/>
      <point x="675" y="1455"/>
      <point x="494" y="1455" type="qcurve" smooth="yes"/>
      <point x="310" y="1455"/>
      <point x="125" y="1147"/>
      <point x="125" y="872" type="qcurve" smooth="yes"/>
      <point x="125" y="560" type="line" smooth="yes"/>
      <point x="125" y="287"/>
      <point x="317" y="-20"/>
    </contour>
  </outline>
</glyph>
<glyph name="numero" format="1">
  <advance width="1462"/>
  <unicode hex="2116"/>
  <outline>
    <contour>
      <point x="170" y="0" type="line"/>
      <point x="217" y="0" type="line"/>
      <point x="217" y="1090" type="line" smooth="yes"/>
      <point x="217" y="1120"/>
      <point x="213" y="1195"/>
      <point x="209" y="1225" type="qcurve"/>
      <point x="219" y="1225" type="line"/>
      <point x="233" y="1200"/>
      <point x="261" y="1140"/>
      <point x="275" y="1109" type="qcurve" smooth="yes"/>
      <point x="687" y="0" type="line"/>
      <point x="754" y="0" type="line"/>
      <point x="754" y="1456" type="line"/>
      <point x="707" y="1456" type="line"/>
      <point x="707" y="363" type="line" smooth="yes"/>
      <point x="707" y="333"/>
      <point x="711" y="266"/>
      <point x="715" y="228" type="qcurve"/>
      <point x="705" y="228" type="line"/>
      <point x="691" y="253"/>
      <point x="664" y="313"/>
      <point x="650" y="343" type="qcurve" smooth="yes"/>
      <point x="237" y="1456" type="line"/>
      <point x="170" y="1456" type="line"/>
    </contour>
    <contour>
      <point x="864" y="200" type="line"/>
      <point x="864" y="250" type="line"/>
      <point x="1352" y="250" type="line"/>
      <point x="1352" y="200" type="line"/>
    </contour>
    <contour>
      <point x="874" y="964" type="qcurve" smooth="yes"/>
      <point x="874" y="984" type="line" smooth="yes"/>
      <point x="874" y="1196"/>
      <point x="996" y="1476"/>
      <point x="1108" y="1476" type="qcurve" smooth="yes"/>
      <point x="1220" y="1476"/>
      <point x="1342" y="1196"/>
      <point x="1342" y="984" type="qcurve" smooth="yes"/>
      <point x="1342" y="964" type="line" smooth="yes"/>
      <point x="1342" y="752"/>
      <point x="1220" y="472"/>
      <point x="1108" y="472" type="qcurve" smooth="yes"/>
      <point x="996" y="472"/>
      <point x="874" y="752"/>
    </contour>
    <contour>
      <point x="928" y="964" type="line" smooth="yes"/>
      <point x="928" y="771"/>
      <point x="1020" y="522"/>
      <point x="1108" y="522" type="qcurve" smooth="yes"/>
      <point x="1196" y="522"/>
      <point x="1288" y="771"/>
      <point x="1288" y="964" type="qcurve" smooth="yes"/>
      <point x="1288" y="984" type="line" smooth="yes"/>
      <point x="1288" y="1177"/>
      <point x="1196" y="1426"/>
      <point x="1108" y="1426" type="qcurve" smooth="yes"/>
      <point x="1020" y="1426"/>
      <point x="928" y="1177"/>
      <point x="928" y="984" type="qcurve" smooth="yes"/>
    </contour>
  </outline>
</glyph>
<glyph name="divisionslash" format="1">
  <advance width="419"/>
  <unicode hex="2215"/>
  <outline>
    <contour>
      <point x="-50" y="-125" type="line"/>
      <point x="1" y="-125" type="line"/>
      <point x="419" y="1456" type="line"/>
      <point x="369" y="1456" type="line"/>
    </contour>
  </outline>
</glyph>
<glyph name="fl" format="1">
  <advance width="893"/>
  <unicode hex="FB02"/>
  <outline>
    <contour>
      <point x="548" y="0" type="line"/>
      <point x="737" y="0" type="line"/>
      <point x="737" y="1496" type="line"/>
      <point x="548" y="1496" type="line"/>
    </contour>
    <contour>
      <point x="328" y="0" type="line"/>
      <point x="328" y="1176" type="line" smooth="yes"/>
      <point x="328" y="1299"/>
      <point x="387" y="1396"/>
      <point x="442" y="1396" type="qcurve" smooth="yes"/>
      <point x="468" y="1396"/>
      <point x="547" y="1358"/>
      <point x="626" y="1311" type="qcurve"/>
      <point x="650" y="1492" type="line"/>
      <point x="595" y="1522"/>
      <point x="503" y="1557"/>
      <point x="433" y="1557" type="qcurve" smooth="yes"/>
      <point x="289" y="1557"/>
      <point x="138" y="1346"/>
      <point x="138" y="1176" type="qcurve" smooth="yes"/>
      <point x="138" y="0" type="line"/>
    </contour>
    <contour>
      <point x="513" y="1052" type="line"/>
      <point x="26" y="1052" type="line"/>
      <point x="26" y="910" type="line"/>
      <point x="513" y="910" type="line"/>
    </contour>
  </outline>
</glyph>
<glyph name="f_f_i" format="1">
  <advance width="877"/>
  <unicode hex="FB03"/>
  <outline>
    <contour>
      <point x="153" y="0" type="line"/>
      <point x="207" y="0" type="line"/>
      <point x="207" y="1022" type="line"/>
      <point x="207" y="1032" type="line"/>
      <point x="207" y="1200" type="line" smooth="yes"/>
      <point x="207" y="1355"/>
      <point x="248" y="1510"/>
      <point x="301" y="1510" type="qcurve" smooth="yes"/>
      <point x="328" y="1510"/>
      <point x="369" y="1483"/>
      <point x="391" y="1470" type="qcurve"/>
      <point x="409" y="1510" type="line"/>
      <point x="384" y="1528"/>
      <point x="330" y="1556"/>
      <point x="301" y="1556" type="qcurve" smooth="yes"/>
      <point x="232" y="1556"/>
      <point x="153" y="1374"/>
      <point x="153" y="1200" type="qcurve" smooth="yes"/>
    </contour>
    <contour>
      <point x="25" y="1002" type="line"/>
      <point x="293" y="1002" type="line"/>
      <point x="293" y="1052" type="line"/>
      <point x="156" y="1052" type="line"/>
      <point x="158" y="1052" type="line"/>
      <point x="25" y="1052" type="line"/>
    </contour>
    <contour>
      <point x="418" y="0" type="line"/>
      <point x="472" y="0" type="line"/>
      <point x="472" y="1022" type="line"/>
      <point x="472" y="1032" type="line"/>
      <point x="472" y="1200" type="line" smooth="yes"/>
      <point x="472" y="1355"/>
      <point x="530" y="1510"/>
      <point x="590" y="1510" type="qcurve" smooth="yes"/>
      <point x="620" y="1510"/>
      <point x="671" y="1483"/>
      <point x="691" y="1470" type="qcurve"/>
      <point x="710" y="1510" type="line"/>
      <point x="682" y="1530"/>
      <point x="622" y="1556"/>
      <point x="590" y="1556" type="qcurve" smooth="yes"/>
      <point x="509" y="1556"/>
      <point x="418" y="1374"/>
      <point x="418" y="1200" type="qcurve" smooth="yes"/>
    </contour>
    <contour>
      <point x="287" y="1002" type="line"/>
      <point x="594" y="1002" type="line"/>
      <point x="594" y="1052" type="line"/>
      <point x="418" y="1052" type="line"/>
      <point x="420" y="1052" type="line"/>
      <point x="287" y="1052" type="line"/>
    </contour>
    <contour>
      <point x="683" y="0" type="line"/>
      <point x="737" y="0" type="line"/>
      <point x="737" y="1052" type="line"/>
      <point x="683" y="1052" type="line"/>
    </contour>
  </outline>
</glyph>
<glyph name="f_f_l" format="1">
  <advance width="916"/>
  <unicode hex="FB04"/>
  <outline>
    <contour>
      <point x="153" y="0" type="line"/>
      <point x="207" y="0" type="line"/>
      <point x="207" y="1022" type="line"/>
      <point x="207" y="1032" type="line"/>
      <point x="207" y="1200" type="line" smooth="yes"/>
      <point x="207" y="1355"/>
      <point x="248" y="1510"/>
      <point x="301" y="1510" type="qcurve" smooth="yes"/>
      <point x="328" y="1510"/>
      <point x="369" y="1483"/>
      <point x="391" y="1470" type="qcurve"/>
      <point x="409" y="1510" type="line"/>
      <point x="384" y="1528"/>
      <point x="330" y="1556"/>
      <point x="301" y="1556" type="qcurve" smooth="yes"/>
      <point x="232" y="1556"/>
      <point x="153" y="1374"/>
      <point x="153" y="1200" type="qcurve" smooth="yes"/>
    </contour>
    <contour>
      <point x="25" y="1002" type="line"/>
      <point x="339" y="1002" type="line"/>
      <point x="339" y="1052" type="line"/>
      <point x="156" y="1052" type="line"/>
      <point x="158" y="1052" type="line"/>
      <point x="25" y="1052" type="line"/>
    </contour>
    <contour>
      <point x="418" y="0" type="line"/>
      <point x="472" y="0" type="line"/>
      <point x="472" y="1022" type="line"/>
      <point x="472" y="1032" type="line"/>
      <point x="472" y="1200" type="line" smooth="yes"/>
      <point x="472" y="1355"/>
      <point x="530" y="1510"/>
      <point x="589" y="1510" type="qcurve" smooth="yes"/>
      <point x="643" y="1510"/>
      <point x="736" y="1473"/>
      <point x="769" y="1452" type="qcurve"/>
      <point x="789" y="1496" type="line"/>
      <point x="748" y="1520"/>
      <point x="644" y="1556"/>
      <point x="589" y="1556" type="qcurve" smooth="yes"/>
      <point x="509" y="1556"/>
      <point x="418" y="1374"/>
      <point x="418" y="1200" type="qcurve" smooth="yes"/>
    </contour>
    <contour>
      <point x="280" y="1002" type="line"/>
      <point x="594" y="1002" type="line"/>
      <point x="594" y="1052" type="line"/>
      <point x="411" y="1052" type="line"/>
      <point x="413" y="1052" type="line"/>
      <point x="280" y="1052" type="line"/>
    </contour>
    <contour>
      <point x="705" y="0" type="line"/>
      <point x="759" y="0" type="line"/>
      <point x="759" y="1496" type="line"/>
      <point x="705" y="1496" type="line"/>
    </contour>
  </outline>
</glyph>
<glyph name="bitcoin" format="1">
  <advance width="756"/>
  <outline>
    <contour>
      <point x="170" y="0" type="line"/>
      <point x="431" y="0" type="line" smooth="yes"/>
      <point x="536" y="0"/>
      <point x="656" y="206"/>
      <point x="656" y="392" type="qcurve" smooth="yes"/>
      <point x="656" y="544"/>
      <point x="570" y="734"/>
      <point x="498" y="762" type="qcurve"/>
      <point x="498" y="766" type="line"/>
      <point x="555" y="794"/>
      <point x="627" y="964"/>
      <point x="627" y="1094" type="qcurve" smooth="yes"/>
      <point x="627" y="1280"/>
      <point x="513" y="1456"/>
      <point x="408" y="1456" type="qcurve" smooth="yes"/>
      <point x="170" y="1456" type="line"/>
    </contour>
    <contour>
      <point x="224" y="50" type="line"/>
      <point x="224" y="733" type="line"/>
      <point x="431" y="733" type="line" smooth="yes"/>
      <point x="518" y="733"/>
      <point x="600" y="548"/>
      <point x="600" y="392" type="qcurve" smooth="yes"/>
      <point x="600" y="236"/>
      <point x="518" y="50"/>
      <point x="431" y="50" type="qcurve" smooth="yes"/>
    </contour>
    <contour>
      <point x="224" y="783" type="line"/>
      <point x="224" y="1406" type="line"/>
      <point x="408" y="1406" type="line" smooth="yes"/>
      <point x="495" y="1406"/>
      <point x="572" y="1244"/>
      <point x="572" y="1094" type="qcurve" smooth="yes"/>
      <point x="572" y="948"/>
      <point x="495" y="783"/>
      <point x="408" y="783" type="qcurve" smooth="yes"/>
    </contour>
    <contour>
      <point x="72" y="420" type="line"/>
      <point x="172" y="420" type="line"/>
      <point x="175" y="420" type="line"/>
      <point x="387" y="420" type="line"/>
      <point x="387" y="470" type="line"/>
      <point x="175" y="470" type="line"/>
      <point x="172" y="470" type="line"/>
      <point x="72" y="470" type="line"/>
    </contour>
  </outline>
</glyph>
<glyph name="eight.pnum" format="1">
  <advance width="920"/>
  <outline>
    <contour>
      <point x="237" y="376" type="qcurve" smooth="yes"/>
      <point x="237.0" y="182.7596153846154"/>
      <point x="358.0" y="-30.0"/>
      <point x="460" y="-30" type="qcurve" smooth="yes"/>
      <point x="562.0" y="-30.0"/>
      <point x="682.0" y="182.7596153846154"/>
      <point x="682" y="376" type="qcurve" smooth="yes"/>
      <point x="682.0" y="509.64145658263305"/>
      <point x="603.374282215697" y="700.8540299358782"/>
      <point x="525" y="743" type="qcurve"/>
      <point x="525" y="747" type="line"/>
      <point x="588.4571527639017" y="789.2228619724021"/>
      <point x="651.0" y="973.4705882352941"/>
      <point x="651" y="1097" type="qcurve" smooth="yes"/>
      <point x="651.0" y="1272.4887218045112"/>
      <point x="548.0" y="1486.0"/>
      <point x="460" y="1486" type="qcurve" smooth="yes"/>
      <point x="372.0" y="1486.0"/>
      <point x="269.0" y="1272.4887218045112"/>
      <point x="269" y="1097" type="qcurve" smooth="yes"/>
      <point x="269.0" y="973.4705882352941"/>
      <point x="330.5428472360983" y="789.2228619724021"/>
      <point x="395" y="747" type="qcurve"/>
      <point x="395" y="743" type="line"/>
      <point x="316.625717784303" y="700.8540299358782"/>
      <point x="237.0" y="509.64145658263305"/>
    </contour>
    <contour>
      <point x="293" y="376" type="qcurve" smooth="yes"/>
      <point x="293.0" y="528.4311377245509"/>
      <point x="374.0" y="720.0"/>
      <point x="460" y="720" type="qcurve" smooth="yes"/>
      <point x="545.0" y="720.0"/>
      <point x="626.0" y="528.4311377245509"/>
      <point x="626" y="376" type="qcurve" smooth="yes"/>
      <point x="626.0" y="216.4808743169399"/>
      <point x="545.0" y="20.0"/>
      <point x="460" y="20" type="qcurve" smooth="yes"/>
      <point x="374.0" y="20.0"/>
      <point x="293.0" y="216.4808743169399"/>
    </contour>
    <contour>
      <point x="323" y="1097" type="qcurve" smooth="yes"/>
      <point x="323.0" y="1245.6160458452723"/>
      <point x="389.0" y="1436.0"/>
      <point x="460" y="1436" type="qcurve" smooth="yes"/>
      <point x="530.0" y="1436.0"/>
      <point x="597.0" y="1245.6160458452723"/>
      <point x="597" y="1097" type="qcurve" smooth="yes"/>
      <point x="597.0" y="955.6782334384858"/>
      <point x="530.0" y="770.0"/>
      <point x="460" y="770" type="qcurve" smooth="yes"/>
      <point x="389.0" y="770.0"/>
      <point x="323.0" y="955.6782334384858"/>
    </contour>
  </outline>
</glyph>
<glyph name="five.pnum" format="1">
  <advance width="1020"/>
  <outline>
    <contour>
      <point x="280" y="365" type="line" smooth="yes"/>
      <point x="280" y="195"/>
      <point x="403" y="-30"/>
      <point x="503" y="-30" type="qcurve" smooth="yes"/>
      <point x="602" y="-30"/>
      <point x="732.0" y="235.0"/>
      <point x="732" y="465" type="qcurve" smooth="yes"/>
      <point x="732.0" y="672.3305954825462"/>
      <point x="600" y="904"/>
      <point x="505" y="904" type="qcurve" smooth="yes"/>
      <point x="469" y="904"/>
      <point x="407" y="860"/>
      <point x="378" y="813" type="qcurve"/>
      <point x="435" y="1406" type="line"/>
      <point x="690" y="1406" type="line"/>
      <point x="690" y="1456" type="line"/>
      <point x="388" y="1456" type="line"/>
      <point x="318" y="720" type="line"/>
      <point x="344" y="716" type="line"/>
      <point x="360" y="766"/>
      <point x="453" y="854"/>
      <point x="503" y="854" type="qcurve" smooth="yes"/>
      <point x="579" y="854"/>
      <point x="677.0" y="654.7560975609756"/>
      <point x="677" y="465" type="qcurve" smooth="yes"/>
      <point x="677.0" y="253.7240356083086"/>
      <point x="579" y="20"/>
      <point x="503" y="20" type="qcurve" smooth="yes"/>
      <point x="426" y="20"/>
      <point x="335" y="205"/>
      <point x="335" y="365" type="qcurve" smooth="yes"/>
      <point x="335" y="375" type="line"/>
      <point x="280" y="375" type="line"/>
    </contour>
  </outline>
</glyph>
<glyph name="four.pnum" format="1">
  <advance width="1006"/>
  <outline>
    <contour>
      <point x="611" y="0" type="line"/>
      <point x="666" y="0" type="line"/>
      <point x="666" y="1456" type="line"/>
      <point x="655" y="1456" type="line"/>
      <point x="190" y="436" type="line"/>
      <point x="190" y="370" type="line"/>
      <point x="815" y="370" type="line"/>
      <point x="815" y="420" type="line"/>
      <point x="659" y="420" type="line"/>
      <point x="663" y="420" type="line"/>
      <point x="226" y="420" type="line"/>
      <point x="605" y="1182" type="line"/>
      <point x="611" y="1182" type="line"/>
      <point x="611" y="400" type="line"/>
      <point x="611" y="390" type="line"/>
    </contour>
  </outline>
</glyph>
<glyph name="nine.pnum" format="1">
  <advance width="920"/>
  <outline>
    <contour>
      <point x="221" y="1002" type="qcurve" smooth="yes"/>
      <point x="221" y="804"/>
      <point x="343.0" y="560.0"/>
      <point x="448" y="560" type="qcurve" smooth="yes"/>
      <point x="540.0" y="560.0"/>
      <point x="680.0" y="810.3362831858407"/>
      <point x="680" y="1002" type="qcurve"/>
      <point x="650" y="1002" type="line"/>
      <point x="650.0" y="840.1293532338309"/>
      <point x="528.0" y="610.0"/>
      <point x="448" y="610" type="qcurve" smooth="yes"/>
      <point x="366.0" y="610.0"/>
      <point x="276.0" y="813.8009950248756"/>
      <point x="276" y="1002" type="qcurve" smooth="yes"/>
      <point x="276.0" y="1208.2477477477478"/>
      <point x="366.0" y="1436.0"/>
      <point x="448" y="1436" type="qcurve" smooth="yes"/>
      <point x="533" y="1436"/>
      <point x="644" y="1171"/>
      <point x="644" y="852" type="qcurve" smooth="yes"/>
      <point x="644" y="802" type="line" smooth="yes"/>
      <point x="644" y="436"/>
      <point x="476" y="20"/>
      <point x="338" y="20" type="qcurve" smooth="yes"/>
      <point x="323" y="20" type="line"/>
      <point x="323" y="-30" type="line"/>
      <point x="338" y="-30" type="line" smooth="yes"/>
      <point x="503" y="-30"/>
      <point x="698" y="426"/>
      <point x="698" y="812" type="qcurve" smooth="yes"/>
      <point x="698" y="842" type="line" smooth="yes"/>
      <point x="698" y="1182"/>
      <point x="551" y="1486"/>
      <point x="448" y="1486" type="qcurve" smooth="yes"/>
      <point x="346.0" y="1486.0"/>
      <point x="221" y="1218"/>
    </contour>
  </outline>
</glyph>
<glyph name="one.pnum" format="1">
  <advance width="678"/>
  <outline>
    <contour>
      <point x="488" y="1464" type="line"/>
      <point x="415" y="1464" type="line"/>
      <point x="47" y="1258" type="line"/>
      <point x="47" y="1066" type="line"/>
      <point x="295" y="1209" type="line"/>
      <point x="295" y="0" type="line"/>
      <point x="488" y="0" type="line"/>
    </contour>
  </outline>
</glyph>
<glyph name="seven.pnum" format="1">
  <advance width="672"/>
  <outline>
    <contour>
      <point x="672" y="1456" type="line"/>
      <point x="0" y="1456" type="line"/>
      <point x="0" y="1304" type="line"/>
      <point x="485" y="1304" type="line"/>
      <point x="111" y="0" type="line"/>
      <point x="289" y="0" type="line"/>
      <point x="672" y="1374" type="line"/>
    </contour>
  </outline>
</glyph>
<glyph name="three.pnum" format="1">
  <advance width="964"/>
  <outline>
    <contour>
      <point x="242" y="380" type="line" smooth="yes"/>
      <point x="242" y="200"/>
      <point x="369" y="-30"/>
      <point x="469" y="-30" type="qcurve" smooth="yes"/>
      <point x="568" y="-30"/>
      <point x="693" y="200"/>
      <point x="693" y="400" type="qcurve" smooth="yes"/>
      <point x="693" y="540"/>
      <point x="590" y="728"/>
      <point x="509" y="758" type="qcurve"/>
      <point x="509" y="762" type="line"/>
      <point x="590" y="814"/>
      <point x="655" y="990"/>
      <point x="655" y="1100" type="qcurve" smooth="yes"/>
      <point x="655" y="1270"/>
      <point x="554" y="1486"/>
      <point x="469" y="1486" type="qcurve" smooth="yes"/>
      <point x="383" y="1486"/>
      <point x="272" y="1270"/>
      <point x="272" y="1100" type="qcurve" smooth="yes"/>
      <point x="272" y="1090" type="line"/>
      <point x="326" y="1090" type="line"/>
      <point x="326" y="1100" type="line" smooth="yes"/>
      <point x="326" y="1260"/>
      <point x="408" y="1436"/>
      <point x="469" y="1436" type="qcurve" smooth="yes"/>
      <point x="527" y="1436"/>
      <point x="601" y="1260"/>
      <point x="601" y="1100" type="qcurve" smooth="yes"/>
      <point x="601" y="960"/>
      <point x="515" y="786"/>
      <point x="433" y="786" type="qcurve" smooth="yes"/>
      <point x="354" y="786" type="line"/>
      <point x="354" y="732" type="line"/>
      <point x="440" y="732" type="line" smooth="yes"/>
      <point x="521" y="732"/>
      <point x="638" y="560"/>
      <point x="638" y="400" type="qcurve" smooth="yes"/>
      <point x="638" y="210"/>
      <point x="546" y="20"/>
      <point x="469" y="20" type="qcurve" smooth="yes"/>
      <point x="391.0" y="20.0"/>
      <point x="296" y="210"/>
      <point x="296" y="380" type="qcurve" smooth="yes"/>
      <point x="296" y="390" type="line"/>
      <point x="242" y="390" type="line"/>
    </contour>
  </outline>
</glyph>
<glyph name="two.pnum" format="1">
  <advance width="762"/>
  <outline>
    <contour>
      <point x="48" y="0" type="line"/>
      <point x="729" y="0" type="line"/>
      <point x="729" y="152" type="line"/>
      <point x="257" y="152" type="line"/>
      <point x="507" y="576" type="line" smooth="yes"/>
      <point x="593" y="722"/>
      <point x="709" y="967"/>
      <point x="709" y="1096" type="qcurve" smooth="yes"/>
      <point x="709" y="1233"/>
      <point x="545" y="1476"/>
      <point x="381" y="1476" type="qcurve" smooth="yes"/>
      <point x="220" y="1476"/>
      <point x="41" y="1202"/>
      <point x="41" y="1035" type="qcurve" smooth="yes"/>
      <point x="41" y="1028" type="line"/>
      <point x="231" y="1028" type="line"/>
      <point x="231" y="1037" type="line" smooth="yes"/>
      <point x="231" y="1178"/>
      <point x="323" y="1324"/>
      <point x="381" y="1324" type="qcurve" smooth="yes"/>
      <point x="447" y="1324"/>
      <point x="521" y="1191"/>
      <point x="521" y="1072" type="qcurve" smooth="yes"/>
      <point x="521" y="954"/>
      <point x="449" y="803"/>
      <point x="397" y="714" type="qcurve" smooth="yes"/>
      <point x="48" y="118" type="line"/>
    </contour>
  </outline>
</glyph>
